<?xml version="1.0" encoding="UTF-8" standalone="no"?>
<!-- Created with Inkscape (http://www.inkscape.org/) -->

<svg
   xmlns:dc="http://purl.org/dc/elements/1.1/"
   xmlns:cc="http://creativecommons.org/ns#"
   xmlns:rdf="http://www.w3.org/1999/02/22-rdf-syntax-ns#"
   xmlns:svg="http://www.w3.org/2000/svg"
   xmlns="http://www.w3.org/2000/svg"
   xmlns:sodipodi="http://sodipodi.sourceforge.net/DTD/sodipodi-0.dtd"
   xmlns:inkscape="http://www.inkscape.org/namespaces/inkscape"
   width="100"
   height="100"
   viewBox="0 0 100 100"
   id="svg5269"
   version="1.1"
   inkscape:version="0.91 r13725"
   sodipodi:docname="contact.svg">
  <defs
     id="defs5271" />
  <sodipodi:namedview
     id="base"
     pagecolor="#ffffff"
     bordercolor="#666666"
     borderopacity="1.0"
     inkscape:pageopacity="0.0"
     inkscape:pageshadow="2"
     inkscape:zoom="2.8"
     inkscape:cx="58.625882"
     inkscape:cy="23.699899"
     inkscape:document-units="px"
     inkscape:current-layer="layer1"
     showgrid="false"
     units="px"
     inkscape:window-width="1366"
     inkscape:window-height="704"
     inkscape:window-x="0"
     inkscape:window-y="27"
     inkscape:window-maximized="1" />
  <metadata
     id="metadata5274">
    <rdf:RDF>
      <cc:Work
         rdf:about="">
        <dc:format>image/svg+xml</dc:format>
        <dc:type
           rdf:resource="http://purl.org/dc/dcmitype/StillImage" />
        <dc:title />
      </cc:Work>
    </rdf:RDF>
  </metadata>
  <g
     inkscape:label="Layer 1"
     inkscape:groupmode="layer"
     id="layer1"
     transform="translate(0,-952.36216)">
    <path
       id="path9576"
       d="m 84.177435,967.44613 c 2.67736,0 4.86793,2.1905 4.86793,4.8679 l 0,48.67917 c 0,2.6774 -2.19057,4.868 -4.86793,4.868 l -8.92453,0 -3.24528,0 0,3.2452 0,5.5982 -10.54717,-8.1133 -0.81132,-0.7301 -1.13585,0 -42.675468,0 c -2.67736,0 -4.86793,-2.1906 -4.86793,-4.868 l 0,-48.67917 c 0,-2.6774 2.19057,-4.8679 4.86793,-4.8679 l 67.339618,0 m 0,-3.2453 -67.339618,0 c -4.46227,0 -8.11321,3.6509 -8.11321,8.1132 l 0,48.67917 c 0,4.4623 3.65094,8.1132 8.11321,8.1132 l 42.675468,0 15.73962,12.1699 0,-12.1699 8.92453,0 c 4.46227,0 8.11321,-3.6509 8.11321,-8.1132 l 0,-48.67917 c 0,-4.4623 -3.65094,-8.1132 -8.11321,-8.1132 l 0,0 z"
       inkscape:connector-curvature="0"
       style="display:inline;fill:#02aaf4;fill-opacity:1;stroke:#02aaf4;stroke-width:2.43396235;stroke-miterlimit:4;stroke-dasharray:none;stroke-opacity:1" />
    <path
       style="fill:#ffffff"
       d="m 46.716164,1012.6069 c -0.309886,-0.1619 -0.424432,-0.2711 -0.551118,-0.5253 l -0.134333,-0.2696 3.1e-4,-3.2192 c 2.17e-4,-2.0837 0.0198,-3.2895 0.0556,-3.4183 0.07021,-0.253 0.327808,-0.5481 0.564547,-0.647 0.153722,-0.064 0.720034,-0.077 3.508412,-0.077 3.251782,0 3.330049,0 3.549918,0.1089 0.143171,0.069 0.283674,0.1977 0.386842,0.3534 l 0.162013,0.2446 -0.01426,3.438 -0.01426,3.4381 -0.162331,0.2005 c -0.08928,0.1103 -0.265039,0.2548 -0.390569,0.3213 l -0.228235,0.1206 -3.300343,-3e-4 c -2.612596,-2e-4 -3.327807,-0.015 -3.432158,-0.068 z m -0.08913,-9.9528 c -0.202114,-0.1295 -0.396109,-0.4467 -0.51148,-0.836 -0.111978,-0.378 -0.114504,-1.7149 -0.0047,-2.45479 0.229192,-1.5435 1.183026,-3.03345 2.840843,-4.43752 0.803531,-0.68059 1.260409,-0.97987 2.351672,-1.54076 0.864636,-0.4444 1.103679,-0.58172 1.634542,-0.93903 0.221687,-0.1492 0.632451,-0.55884 0.783634,-0.78148 0.326788,-0.48126 0.512837,-1.20904 0.468472,-1.83255 -0.04,-0.56178 -0.224457,-0.92889 -0.695415,-1.38381 -0.861212,-0.83189 -1.942948,-1.23909 -3.291644,-1.23909 -1.274319,0 -2.28395,0.32821 -3.076913,1.00026 -0.370735,0.3142 -1.269024,1.2814 -2.03374,2.18973 -0.341801,0.406 -0.691666,0.7728 -0.777466,0.8151 -0.08581,0.0423 -0.2898,0.0757 -0.453319,0.0743 -0.345988,-0.002 -0.526438,-0.0952 -1.189189,-0.60801 -0.237577,-0.1838 -0.688396,-0.52965 -1.00182,-0.76853 -2.341551,-1.78468 -2.786879,-2.13834 -2.909409,-2.31056 -0.113628,-0.1597 -0.13853,-0.25308 -0.138063,-0.5177 6.27e-4,-0.3533 0.08131,-0.51715 0.704211,-1.43013 0.866413,-1.26988 2.310872,-2.80025 3.276124,-3.47097 2.2049,-1.5321 4.043159,-2.19093 6.87497,-2.46399 1.532238,-0.14775 3.295622,0.0576 4.804113,0.55938 3.76879,1.25371 6.608559,3.85485 7.692627,7.04621 0.335739,0.9884 0.418087,1.5173 0.417127,2.67938 -6.76e-4,0.85237 -0.02061,1.12285 -0.116423,1.5818 -0.234936,1.12537 -0.739978,2.37584 -1.25441,3.10594 -0.390422,0.55406 -1.464173,1.57561 -2.28158,2.17066 -0.198021,0.14417 -1.396627,0.87367 -1.794616,1.09223 -0.691578,0.37981 -1.403457,0.95731 -1.721652,1.39671 -0.109676,0.15147 -0.212837,0.28725 -0.22924,0.30171 -0.01641,0.0148 -0.104528,0.14506 -0.195812,0.29004 -0.304292,0.48327 -0.532559,1.02597 -0.594429,1.41327 -0.121782,0.7621 -0.302826,1.1065 -0.68333,1.3008 -0.203818,0.1038 -0.298096,0.1071 -3.467518,0.106 -3.190385,0 -3.261504,0 -3.426233,-0.1086 z"
       id="path4147"
       inkscape:connector-curvature="0" />
  </g>
</svg>
