<?xml version="1.0" encoding="UTF-8" standalone="no"?>
<svg
   xmlns:dc="http://purl.org/dc/elements/1.1/"
   xmlns:cc="http://creativecommons.org/ns#"
   xmlns:rdf="http://www.w3.org/1999/02/22-rdf-syntax-ns#"
   xmlns:svg="http://www.w3.org/2000/svg"
   xmlns="http://www.w3.org/2000/svg"
   xmlns:sodipodi="http://sodipodi.sourceforge.net/DTD/sodipodi-0.dtd"
   xmlns:inkscape="http://www.inkscape.org/namespaces/inkscape"
   enable-background="new 0 0 500 500"
   height="600"
   id="Layer_1"
   version="1.1"
   viewBox="0 0 600 600"
   width="600"
   xml:space="preserve"
   inkscape:version="0.91 r13725"
   sodipodi:docname="email.svg"><metadata
     id="metadata9"><rdf:RDF><cc:Work
         rdf:about=""><dc:format>image/svg+xml</dc:format><dc:type
           rdf:resource="http://purl.org/dc/dcmitype/StillImage" /><dc:title /></cc:Work></rdf:RDF></metadata><defs
     id="defs7" /><sodipodi:namedview
     pagecolor="#ffffff"
     bordercolor="#666666"
     borderopacity="1"
     objecttolerance="10"
     gridtolerance="10"
     guidetolerance="10"
     inkscape:pageopacity="0"
     inkscape:pageshadow="2"
     inkscape:window-width="1366"
     inkscape:window-height="704"
     id="namedview5"
     showgrid="false"
     inkscape:zoom="0.6675088"
     inkscape:cx="96.192839"
     inkscape:cy="226.32474"
     inkscape:window-x="0"
     inkscape:window-y="27"
     inkscape:window-maximized="1"
     inkscape:current-layer="Layer_1" /><g
     transform="matrix(5.9136558,0,0,5.9136558,5.4175994,-5596.0594)"
     id="layer1"
     inkscape:label="Layer 1"
     style="fill:#05376c;fill-opacity:1"><g
       id="g8895"
       transform="matrix(0.87836396,0,0,0.87836396,-11.042865,937.60323)"
       style="display:inline;fill:#05376c;fill-opacity:1"><path
         id="path8885"
         d="m 69.5,64.534 46.415,-28.941 c -0.505,-0.08 -1.017,-0.132 -1.542,-0.132 l -89.746,0 c -0.525,0 -1.038,0.054 -1.541,0.132 L 69.5,64.534 Z"
         inkscape:connector-curvature="0"
         style="fill:#05376c;fill-opacity:1" /><path
         id="path8887"
         d="m 72.421,75.723 c -0.062,0.04 -0.13,0.066 -0.194,0.104 -0.067,0.037 -0.139,0.073 -0.206,0.107 -0.365,0.188 -0.741,0.339 -1.125,0.439 -0.04,0.011 -0.078,0.017 -0.116,0.025 -0.423,0.099 -0.848,0.16 -1.274,0.16 -0.001,0 -0.003,0 -0.004,0 -10e-4,0 -0.003,0 -0.005,0 -0.426,0 -0.852,-0.06 -1.273,-0.16 C 68.185,76.389 68.145,76.383 68.106,76.373 67.722,76.272 67.349,76.121 66.982,75.934 66.913,75.9 66.843,75.864 66.775,75.827 66.71,75.79 66.643,75.764 66.579,75.723 L 15.005,43.564 c -0.093,0.544 -0.153,1.099 -0.153,1.671 l 0,51.609 c 0,5.398 4.375,9.774 9.774,9.774 l 89.746,0 c 5.398,0 9.774,-4.376 9.774,-9.774 l 0,-51.609 c 0,-0.572 -0.059,-1.127 -0.154,-1.671 L 72.421,75.723 Z"
         inkscape:connector-curvature="0"
         style="fill:#05376c;fill-opacity:1" /></g></g></svg>