<?xml version="1.0" encoding="UTF-8" standalone="no"?>
<svg
   xmlns:dc="http://purl.org/dc/elements/1.1/"
   xmlns:cc="http://creativecommons.org/ns#"
   xmlns:rdf="http://www.w3.org/1999/02/22-rdf-syntax-ns#"
   xmlns:svg="http://www.w3.org/2000/svg"
   xmlns="http://www.w3.org/2000/svg"
   xmlns:sodipodi="http://sodipodi.sourceforge.net/DTD/sodipodi-0.dtd"
   xmlns:inkscape="http://www.inkscape.org/namespaces/inkscape"
   enable-background="new 0 0 500 500"
   height="600"
   id="Layer_1"
   version="1.1"
   viewBox="0 0 600 600"
   width="600"
   xml:space="preserve"
   inkscape:version="0.91 r13725"
   sodipodi:docname="email2.svg"><metadata
     id="metadata9"><rdf:RDF><cc:Work
         rdf:about=""><dc:format>image/svg+xml</dc:format><dc:type
           rdf:resource="http://purl.org/dc/dcmitype/StillImage" /><dc:title></dc:title></cc:Work></rdf:RDF></metadata><defs
     id="defs7" /><sodipodi:namedview
     pagecolor="#ffffff"
     bordercolor="#666666"
     borderopacity="1"
     objecttolerance="10"
     gridtolerance="10"
     guidetolerance="10"
     inkscape:pageopacity="0"
     inkscape:pageshadow="2"
     inkscape:window-width="1366"
     inkscape:window-height="704"
     id="namedview5"
     showgrid="false"
     inkscape:zoom="0.6675088"
     inkscape:cx="132.25474"
     inkscape:cy="232.31718"
     inkscape:window-x="0"
     inkscape:window-y="27"
     inkscape:window-maximized="1"
     inkscape:current-layer="Layer_1" /><g
     transform="matrix(5.9136558,0,0,5.9136558,5.4175994,-5596.0594)"
     id="layer1"
     inkscape:label="Layer 1"
     style="fill:#03abf4;fill-opacity:1"><g
       id="g8895"
       transform="matrix(0.87836396,0,0,0.87836396,-11.042865,937.60323)"
       style="display:inline;fill:#03abf4;fill-opacity:1"><path
         id="path8885"
         d="m 69.5,64.534 46.415,-28.941 c -0.505,-0.08 -1.017,-0.132 -1.542,-0.132 l -89.746,0 c -0.525,0 -1.038,0.054 -1.541,0.132 L 69.5,64.534 Z"
         inkscape:connector-curvature="0"
         style="fill:#03abf4;fill-opacity:1" /><path
         id="path8887"
         d="m 72.421,75.723 c -0.062,0.04 -0.13,0.066 -0.194,0.104 -0.067,0.037 -0.139,0.073 -0.206,0.107 -0.365,0.188 -0.741,0.339 -1.125,0.439 -0.04,0.011 -0.078,0.017 -0.116,0.025 -0.423,0.099 -0.848,0.16 -1.274,0.16 -0.001,0 -0.003,0 -0.004,0 -10e-4,0 -0.003,0 -0.005,0 -0.426,0 -0.852,-0.06 -1.273,-0.16 C 68.185,76.389 68.145,76.383 68.106,76.373 67.722,76.272 67.349,76.121 66.982,75.934 66.913,75.9 66.843,75.864 66.775,75.827 66.71,75.79 66.643,75.764 66.579,75.723 L 15.005,43.564 c -0.093,0.544 -0.153,1.099 -0.153,1.671 l 0,51.609 c 0,5.398 4.375,9.774 9.774,9.774 l 89.746,0 c 5.398,0 9.774,-4.376 9.774,-9.774 l 0,-51.609 c 0,-0.572 -0.059,-1.127 -0.154,-1.671 L 72.421,75.723 Z"
         inkscape:connector-curvature="0"
         style="fill:#03abf4;fill-opacity:1" /></g></g><g
     transform="translate(-234.26723,-813.83412)"
     id="layer1-6"
     inkscape:label="Layer 1"><g
       id="g6098"
       transform="matrix(0.18718237,0,0,0.19075528,-5.0257973,885.83735)"
       style="display:inline;fill:#03abf4;fill-opacity:1"><path
         id="path6100"
         d="m 335.11891,733.74624 c 0,40.3 -0.1,80.6 0.1,121 0,4.4 -1,5.6 -5.5,5.5 -34.3,-0.2 -68.6,-0.2 -103,0 -4.7,0 -5.8,-1.3 -5.8,-5.9 0.1,-80.1 0.1,-160.3 0.2,-240.4 0,-4.4 -0.8,-6 -5.6,-5.9 -15.2,0.3 -30.3,0 -45.5,0.2 -3.5,0 -4.5,-1 -4.5,-4.5 0.1,-25.3 0.2,-50.7 0,-76 0,-3.9 1.4,-4.7 4.9,-4.6 15.2,0.2 30.3,-0.1 45.5,0.2 4.3,0.1 5.2,-1.3 5.2,-5.4 -0.2,-22.3 -0.2,-44.7 0,-67 0.2,-19.3 4.1,-37.6 15.5,-53.8 12.1,-17.2 28.9,-27.6 48.6,-33.9 14.7,-4.7 29.9,-6.7 45.2,-6.8 29,-0.4 58,-0.1 87,-0.3 4.1,0 5,1.3 5,5.2 -0.1,26 -0.2,52 0,78 0,4.3 -1.3,5.2 -5.4,5.2 -18.3,-0.2 -36.7,-0.1 -55,-0.1 -16.1,0 -26.6,10.6 -26.6,26.5 0,15.8 0.1,31.7 -0.1,47.5 0,3.8 1.1,4.8 4.8,4.8 25.7,-0.1 51.3,0 77,-0.2 3.9,0 5.3,0.9 4.8,5 -2.9,26 -5.2,52 -9.8,77.8 -0.6,3.2 -2.6,2.4 -4.4,2.4 -15.2,0 -30.3,0 -45.5,0 -7.3,0 -14.7,0.2 -22,-0.1 -4.1,-0.2 -5.3,1 -5.2,5.2 0.1,40.1 0.1,80.2 0.1,120.4 z"
         inkscape:connector-curvature="0"
         style="fill:#03abf4;fill-opacity:1" /></g></g></svg>