<?xml version="1.0" encoding="UTF-8" standalone="no"?>
<!-- Created with Inkscape (http://www.inkscape.org/) -->

<svg
   xmlns:dc="http://purl.org/dc/elements/1.1/"
   xmlns:cc="http://creativecommons.org/ns#"
   xmlns:rdf="http://www.w3.org/1999/02/22-rdf-syntax-ns#"
   xmlns:svg="http://www.w3.org/2000/svg"
   xmlns="http://www.w3.org/2000/svg"
   xmlns:sodipodi="http://sodipodi.sourceforge.net/DTD/sodipodi-0.dtd"
   xmlns:inkscape="http://www.inkscape.org/namespaces/inkscape"
   width="200"
   height="200"
   viewBox="0 0 200 200"
   id="svg4509"
   version="1.1"
   inkscape:version="0.91 r13725"
   sodipodi:docname="etfos_logo.svg">
  <defs
     id="defs4511" />
  <sodipodi:namedview
     id="base"
     pagecolor="#ffffff"
     bordercolor="#666666"
     borderopacity="1.0"
     inkscape:pageopacity="0.0"
     inkscape:pageshadow="2"
     inkscape:zoom="1.979899"
     inkscape:cx="95.50101"
     inkscape:cy="113.96565"
     inkscape:document-units="px"
     inkscape:current-layer="layer1"
     showgrid="false"
     units="px"
     inkscape:window-width="947"
     inkscape:window-height="648"
     inkscape:window-x="452"
     inkscape:window-y="30"
     inkscape:window-maximized="0" />
  <metadata
     id="metadata4514">
    <rdf:RDF>
      <cc:Work
         rdf:about="">
        <dc:format>image/svg+xml</dc:format>
        <dc:type
           rdf:resource="http://purl.org/dc/dcmitype/StillImage" />
        <dc:title></dc:title>
      </cc:Work>
    </rdf:RDF>
  </metadata>
  <g
     inkscape:label="Layer 1"
     inkscape:groupmode="layer"
     id="layer1"
     transform="translate(0,-852.36216)">
    <path
       style="display:inline;fill:#ffffff"
       d="m 18.454479,1016.681 0,-21.15395 12.876428,0 12.876428,0 0,3.67902 0,3.67883 -8.277786,0 -8.277622,0 0,5.0588 0,5.0586 7.817791,0 7.81779,0 0,3.6787 0,3.6791 -7.81779,0 -7.817791,0 0,5.0586 0,5.0585 8.737618,0 8.737452,0 0,3.679 0,3.679 -13.336095,0 -13.336423,0 0,-21.1542 z m 42.098561,3.909 -0.250294,-17.2451 -5.748384,-0.2738 -5.748385,-0.2738 0,-3.63513 0,-3.63512 16.555243,0 16.555243,0 0,3.63512 0,3.63513 -5.748221,0.2738 -5.748385,0.2738 -0.250294,17.2451 -0.25013,17.2452 -4.558213,0 -4.55805,0 -0.25013,-17.2452 z m 25.962393,-3.909 0,-21.15395 12.8761,0 12.876427,0 0,3.90892 0,3.90893 -8.04918,0 -8.049025,0 0,4.5988 0,4.5986 7.587875,0.2671 7.58771,0.2672 0,3.6417 0,3.6418 -7.81779,0 -7.817626,0 0,8.7375 0,8.7376 -4.598807,0 -4.598642,0 0,-21.1542 z m 42.543597,19.6894 c -4.39502,-2.2372 -9.18463,-7.9951 -10.40586,-12.5091 -0.589,-2.1786 -0.85409,-6.3793 -0.58851,-9.335 1.03454,-11.5197 9.01552,-18.58708 20.8796,-18.49012 7.95501,0.0641 13.10848,2.82049 16.97349,9.07622 2.47188,4.0002 2.79712,5.3367 2.79712,11.4966 0,8.4881 -2.47977,13.6786 -8.58215,17.9628 -3.46895,2.4356 -4.89347,2.8303 -11.03661,3.0571 -5.15297,0.19 -7.85773,-0.1495 -10.03708,-1.2585 z m 17.70713,-1.1703 c 8.53235,-3.8762 12.71044,-13.2621 10.54571,-23.6904 -2.63556,-12.69563 -17.05402,-18.68133 -28.93913,-12.01463 -13.82075,7.75263 -12.30551,30.53693 2.42356,36.43623 3.64052,1.458 11.9921,1.0759 15.96986,-0.7312 z m -12.22547,-5.1664 c -6.10353,-2.6941 -8.40334,-13.1394 -4.56775,-20.7455 6.83371,-13.55178 22.00486,-3.1791 18.08988,12.3682 -1.82437,7.2451 -7.75846,10.9213 -13.52213,8.3773 z m 8.12971,-1.4233 c 3.30395,-1.7681 4.76973,-6.1534 4.37744,-13.0964 -0.33017,-5.846 -0.62155,-6.6382 -3.32959,-9.0576 -3.92368,-3.5061 -6.96846,-3.4041 -10.73224,0.3594 -3.60404,3.6044 -4.76841,8.7989 -3.24232,14.4661 1.87909,6.9792 7.56092,10.2001 12.92671,7.3285 z m 21.33302,7.8995 c -3.3452,-1.5054 -3.34355,-1.5006 -2.03736,-6.2043 l 0.94202,-3.3908 3.16212,1.3214 c 4.12944,1.7253 10.94524,1.7174 12.38242,-0.016 2.09619,-2.5256 0.60675,-4.5896 -5.40458,-7.4884 -7.5772,-3.6539 -11.11534,-7.5118 -11.11074,-12.1146 0.0164,-7.3698 6.8153,-13.02895 15.72499,-13.07168 3.45547,-0.0164 9.46401,1.28035 10.77777,2.32625 0.16106,0.1282 -0.22301,1.9585 -0.85442,4.06643 -0.97422,3.2515 -1.43701,3.7444 -3.05299,3.2498 -5.13342,-1.5704 -9.40584,-1.5701 -10.97663,0 -1.39412,1.3943 -1.42945,1.8266 -0.29039,3.55 0.71341,1.0796 3.04823,2.6155 5.18896,3.4134 12.2751,4.5755 15.64002,15.8819 6.74578,22.6683 -2.92974,2.2352 -4.27242,2.5832 -10.77744,2.7932 -5.00507,0.161 -8.40614,-0.1992 -10.41951,-1.1052 z m 17.57993,-0.8626 c 4.6348,-1.9368 7.02303,-5.5678 7.02303,-10.6784 0,-5.5258 -2.29735,-8.1458 -10.34062,-11.7925 -6.55531,-2.9727 -7.89225,-4.859 -5.75447,-8.1217 1.09272,-1.6678 2.2538,-2.1698 5.01953,-2.1698 1.97885,0 4.65452,0.402 5.94625,0.893 2.0722,0.7879 2.41568,0.6258 2.9184,-1.3777 0.83371,-3.32233 -0.023,-4.69893 -3.34355,-5.36283 -10.21326,-2.04247 -18.63222,2.0719 -19.87219,9.71223 -0.8909,5.491 1.52281,8.6339 9.61275,12.515 6.35514,3.049 7.10455,3.6839 7.35353,6.2324 0.17321,1.7778 -0.28399,3.3029 -1.22452,4.0836 -1.83752,1.5247 -9.49656,1.5249 -12.34561,10e-5 -2.37607,-1.2717 -3.33435,-0.6067 -4.20438,2.9169 -0.54874,2.2225 -0.29237,2.5725 2.46415,3.3661 4.61672,1.3292 13.31753,1.2166 16.7477,-0.2164 z M 76.207027,971.32296 48.883875,955.5185 48.844435,923.23252 48.804995,890.94654 75.522872,875.5379 c 14.694881,-8.4745 27.421598,-15.55176 28.281928,-15.72679 0.86034,-0.17519 13.69979,6.80133 28.53239,15.50362 l 26.96817,15.82196 0.0164,32.16075 0.0164,32.16075 -11.33933,6.53377 c -6.23665,3.59369 -18.65226,10.74648 -27.58972,15.89551 -8.93778,5.14919 -16.38761,9.33451 -16.55541,9.30098 -0.16779,-0.0345 -12.600328,-7.17323 -27.628168,-15.86549 z m 55.626283,-1.54844 26.39839,-15.17568 0.0164,-31.42565 0.0164,-31.42564 -19.54431,-11.245 c -10.74934,-6.18489 -22.90628,-13.21614 -27.01534,-15.6254 l -7.47119,-4.3804 -27.261029,15.69705 -27.260866,15.69689 0.241748,31.33953 0.241748,31.33969 26.672354,15.42861 c 14.669902,8.48568 27.100965,15.32136 27.624725,15.19021 0.52359,-0.13147 12.83139,-7.06773 27.35059,-15.41421 z m -52.831961,-2.76566 -25.136735,-14.51838 -0.222355,-29.29724 -0.222521,-29.29723 25.350873,-14.57919 25.350879,-14.57887 17.17957,9.92056 c 9.4489,5.45636 20.80663,12.00378 25.23962,14.54961 l 8.06036,4.62905 -0.24257,29.41261 -0.24241,29.41228 -7.35779,4.24448 c -4.04695,2.33416 -15.29211,8.82899 -24.989,14.43236 l -17.63119,10.18827 -25.136731,-14.51831 z m 49.364651,-2.52299 23.43874,-13.56601 0.0164,-27.75291 0.0164,-27.75307 -13.10618,-7.57325 c -7.2084,-4.16544 -17.92027,-10.36461 -23.80375,-13.77589 l -10.69789,-6.20247 -24.022493,13.85133 -24.02249,13.85098 0.01643,27.67764 0.01643,27.67764 23.66718,13.56108 c 13.016941,7.45847 23.981403,13.56348 24.365803,13.56594 0.38423,0.0164 11.24582,-6.09942 24.13704,-13.56101 z m -40.681596,-5.05848 c -8.712637,-6.19687 -15.833285,-11.47376 -15.823424,-11.72685 0.01643,-0.25275 7.251629,-5.57188 16.092618,-11.8197 15.874862,-11.21854 16.103302,-11.34146 18.361042,-9.86221 7.86413,5.1528 29.40669,21.02602 29.40669,21.66778 0,0.83322 -30.36744,23.00761 -31.50847,23.00761 -0.37799,0 -7.815819,-5.06991 -16.528456,-11.26663 z m 0.868717,-48.83415 c -8.59694,-6.14823 -15.599754,-11.59275 -15.561955,-12.09843 0.0756,-1.01021 29.881154,-22.53372 31.204604,-22.53372 0.81152,0 31.98539,21.98087 31.98539,22.55311 0,0.1627 -7.19937,5.46293 -15.99878,11.77714 l -15.99877,11.48067 -15.630489,-11.17877 z"
       id="path6952"
       inkscape:connector-curvature="0" />
  </g>
</svg>
