<?xml version="1.0" encoding="UTF-8" standalone="no"?>
<!-- Created with Inkscape (http://www.inkscape.org/) -->

<svg
   xmlns:dc="http://purl.org/dc/elements/1.1/"
   xmlns:cc="http://creativecommons.org/ns#"
   xmlns:rdf="http://www.w3.org/1999/02/22-rdf-syntax-ns#"
   xmlns:svg="http://www.w3.org/2000/svg"
   xmlns="http://www.w3.org/2000/svg"
   xmlns:sodipodi="http://sodipodi.sourceforge.net/DTD/sodipodi-0.dtd"
   xmlns:inkscape="http://www.inkscape.org/namespaces/inkscape"
   width="100"
   height="100"
   viewBox="0 0 100 100"
   id="svg5269"
   version="1.1"
   inkscape:version="0.91 r13725"
   sodipodi:docname="facebook.svg">
  <defs
     id="defs5271" />
  <sodipodi:namedview
     id="base"
     pagecolor="#ffffff"
     bordercolor="#666666"
     borderopacity="1.0"
     inkscape:pageopacity="0.0"
     inkscape:pageshadow="2"
     inkscape:zoom="3.959798"
     inkscape:cx="59.758106"
     inkscape:cy="53.547243"
     inkscape:document-units="px"
     inkscape:current-layer="layer1"
     showgrid="false"
     units="px"
     inkscape:window-width="1366"
     inkscape:window-height="704"
     inkscape:window-x="0"
     inkscape:window-y="27"
     inkscape:window-maximized="1" />
  <metadata
     id="metadata5274">
    <rdf:RDF>
      <cc:Work
         rdf:about="">
        <dc:format>image/svg+xml</dc:format>
        <dc:type
           rdf:resource="http://purl.org/dc/dcmitype/StillImage" />
        <dc:title></dc:title>
      </cc:Work>
    </rdf:RDF>
  </metadata>
  <g
     inkscape:label="Layer 1"
     inkscape:groupmode="layer"
     id="layer1"
     transform="translate(0,-952.36216)">
    <g
       style="display:inline;fill:#ffffff"
       transform="matrix(0.18718237,0,0,0.19075528,-5.0257973,885.83735)"
       id="g6098">
      <path
         style="fill:#ffffff"
         inkscape:connector-curvature="0"
         d="m 335.11891,733.74624 c 0,40.3 -0.1,80.6 0.1,121 0,4.4 -1,5.6 -5.5,5.5 -34.3,-0.2 -68.6,-0.2 -103,0 -4.7,0 -5.8,-1.3 -5.8,-5.9 0.1,-80.1 0.1,-160.3 0.2,-240.4 0,-4.4 -0.8,-6 -5.6,-5.9 -15.2,0.3 -30.3,0 -45.5,0.2 -3.5,0 -4.5,-1 -4.5,-4.5 0.1,-25.3 0.2,-50.7 0,-76 0,-3.9 1.4,-4.7 4.9,-4.6 15.2,0.2 30.3,-0.1 45.5,0.2 4.3,0.1 5.2,-1.3 5.2,-5.4 -0.2,-22.3 -0.2,-44.7 0,-67 0.2,-19.3 4.1,-37.6 15.5,-53.8 12.1,-17.2 28.9,-27.6 48.6,-33.9 14.7,-4.7 29.9,-6.7 45.2,-6.8 29,-0.4 58,-0.1 87,-0.3 4.1,0 5,1.3 5,5.2 -0.1,26 -0.2,52 0,78 0,4.3 -1.3,5.2 -5.4,5.2 -18.3,-0.2 -36.7,-0.1 -55,-0.1 -16.1,0 -26.6,10.6 -26.6,26.5 0,15.8 0.1,31.7 -0.1,47.5 0,3.8 1.1,4.8 4.8,4.8 25.7,-0.1 51.3,0 77,-0.2 3.9,0 5.3,0.9 4.8,5 -2.9,26 -5.2,52 -9.8,77.8 -0.6,3.2 -2.6,2.4 -4.4,2.4 -15.2,0 -30.3,0 -45.5,0 -7.3,0 -14.7,0.2 -22,-0.1 -4.1,-0.2 -5.3,1 -5.2,5.2 0.1,40.1 0.1,80.2 0.1,120.4 z"
         id="path6100" />
    </g>
  </g>
</svg>
