<?xml version="1.0" encoding="UTF-8" standalone="no"?>
<!-- Created with Inkscape (http://www.inkscape.org/) -->

<svg
   xmlns:dc="http://purl.org/dc/elements/1.1/"
   xmlns:cc="http://creativecommons.org/ns#"
   xmlns:rdf="http://www.w3.org/1999/02/22-rdf-syntax-ns#"
   xmlns:svg="http://www.w3.org/2000/svg"
   xmlns="http://www.w3.org/2000/svg"
   xmlns:sodipodi="http://sodipodi.sourceforge.net/DTD/sodipodi-0.dtd"
   xmlns:inkscape="http://www.inkscape.org/namespaces/inkscape"
   width="100"
   height="100"
   viewBox="0 0 100 100"
   id="svg5269"
   version="1.1"
   inkscape:version="0.91 r13725"
   sodipodi:docname="gplus.svg">
  <defs
     id="defs5271" />
  <sodipodi:namedview
     id="base"
     pagecolor="#ffffff"
     bordercolor="#666666"
     borderopacity="1.0"
     inkscape:pageopacity="0.0"
     inkscape:pageshadow="2"
     inkscape:zoom="2.8"
     inkscape:cx="-19.076439"
     inkscape:cy="54.441716"
     inkscape:document-units="px"
     inkscape:current-layer="layer1"
     showgrid="false"
     units="px"
     inkscape:window-width="1366"
     inkscape:window-height="704"
     inkscape:window-x="0"
     inkscape:window-y="27"
     inkscape:window-maximized="1" />
  <metadata
     id="metadata5274">
    <rdf:RDF>
      <cc:Work
         rdf:about="">
        <dc:format>image/svg+xml</dc:format>
        <dc:type
           rdf:resource="http://purl.org/dc/dcmitype/StillImage" />
        <dc:title />
      </cc:Work>
    </rdf:RDF>
  </metadata>
  <g
     inkscape:label="Layer 1"
     inkscape:groupmode="layer"
     id="layer1"
     transform="translate(0,-952.36216)">
    <g
       id="g4155"
       transform="matrix(1.0526956,0,0,1.0526956,-5.2429105,-49.587842)"
       style="fill:#ffffff;fill-opacity:1">
      <path
         id="path4140"
         d="m 37.619342,994.83331 c -0.0148,3.53975 0,7.07939 0.015,10.61889 5.93419,0.1934 11.882986,0.104 17.817177,0.1934 -2.617462,13.1621 -20.523849,17.4304 -29.997594,8.8343 -9.74157,-7.5403 -9.280525,-24.07843 0.847685,-31.08333 7.079306,-5.65157 17.147911,-4.25363 24.22702,0.63946 2.781275,-2.57286 5.383738,-5.32433 7.897189,-8.17982 -5.889389,-4.69966 -13.117312,-8.046 -20.806477,-7.68896 -16.047203,-0.53546 -30.8006756,13.51895 -31.0683033,29.56635 -1.026301,13.1173 7.5997593,25.982 19.7803733,30.6223 12.135812,4.6699 27.692365,1.4871 35.440937,-9.4143 5.116111,-6.8859 6.216621,-15.7498 5.621762,-24.07849 -9.934989,-0.0744 -19.85478,-0.0596 -29.774769,-0.0298 z"
         inkscape:connector-curvature="0"
         style="fill:#ffffff;fill-opacity:1" />
      <path
         id="path4142"
         d="m 90.600572,995.04125 c -0.0298,-2.9597 -0.0446,-5.9342 -0.05941,-8.89369 -2.959694,0 -5.904388,0 -8.849083,0 -0.0298,2.95969 -0.05941,5.91919 -0.07441,8.89369 -2.974496,0.0148 -5.934191,0.0298 -8.893687,0.0596 0,2.9595 0,5.90415 0,8.84905 2.959496,0.03 5.933993,0.06 8.893687,0.089 0.0298,2.9597 0.0298,5.9192 0.0596,8.8789 2.959694,0 5.904388,0 8.863885,0 0.0148,-2.9597 0.0296,-5.9192 0.05941,-8.8937 2.974497,-0.03 5.934191,-0.045 8.893688,-0.074 0,-2.9449 0,-5.90436 0,-8.84905 -2.959497,-0.0298 -5.933993,-0.0298 -8.893688,-0.0596 z"
         inkscape:connector-curvature="0"
         style="fill:#ffffff;fill-opacity:1" />
    </g>
    <g
       id="layer1-5"
       inkscape:label="Layer 1"
       transform="matrix(0.83661764,0,0,0.83661764,-107.5449,162.05012)">
      <g
         id="g6098"
         transform="matrix(0.18718237,0,0,0.19075528,-5.0257973,885.83735)"
         style="display:inline;fill:#ffffff">
        <path
           id="path6100"
           d="m 335.11891,733.74624 c 0,40.3 -0.1,80.6 0.1,121 0,4.4 -1,5.6 -5.5,5.5 -34.3,-0.2 -68.6,-0.2 -103,0 -4.7,0 -5.8,-1.3 -5.8,-5.9 0.1,-80.1 0.1,-160.3 0.2,-240.4 0,-4.4 -0.8,-6 -5.6,-5.9 -15.2,0.3 -30.3,0 -45.5,0.2 -3.5,0 -4.5,-1 -4.5,-4.5 0.1,-25.3 0.2,-50.7 0,-76 0,-3.9 1.4,-4.7 4.9,-4.6 15.2,0.2 30.3,-0.1 45.5,0.2 4.3,0.1 5.2,-1.3 5.2,-5.4 -0.2,-22.3 -0.2,-44.7 0,-67 0.2,-19.3 4.1,-37.6 15.5,-53.8 12.1,-17.2 28.9,-27.6 48.6,-33.9 14.7,-4.7 29.9,-6.7 45.2,-6.8 29,-0.4 58,-0.1 87,-0.3 4.1,0 5,1.3 5,5.2 -0.1,26 -0.2,52 0,78 0,4.3 -1.3,5.2 -5.4,5.2 -18.3,-0.2 -36.7,-0.1 -55,-0.1 -16.1,0 -26.6,10.6 -26.6,26.5 0,15.8 0.1,31.7 -0.1,47.5 0,3.8 1.1,4.8 4.8,4.8 25.7,-0.1 51.3,0 77,-0.2 3.9,0 5.3,0.9 4.8,5 -2.9,26 -5.2,52 -9.8,77.8 -0.6,3.2 -2.6,2.4 -4.4,2.4 -15.2,0 -30.3,0 -45.5,0 -7.3,0 -14.7,0.2 -22,-0.1 -4.1,-0.2 -5.3,1 -5.2,5.2 0.1,40.1 0.1,80.2 0.1,120.4 z"
           inkscape:connector-curvature="0"
           style="fill:#ffffff" />
      </g>
    </g>
  </g>
</svg>
