<?xml version="1.0" encoding="UTF-8" standalone="no"?>
<!-- Created with Inkscape (http://www.inkscape.org/) -->

<svg
   xmlns:dc="http://purl.org/dc/elements/1.1/"
   xmlns:cc="http://creativecommons.org/ns#"
   xmlns:rdf="http://www.w3.org/1999/02/22-rdf-syntax-ns#"
   xmlns:svg="http://www.w3.org/2000/svg"
   xmlns="http://www.w3.org/2000/svg"
   xmlns:sodipodi="http://sodipodi.sourceforge.net/DTD/sodipodi-0.dtd"
   xmlns:inkscape="http://www.inkscape.org/namespaces/inkscape"
   width="400"
   height="400"
   viewBox="0 0 400 400.00001"
   id="svg4509"
   version="1.1"
   inkscape:version="0.91 r13725"
   sodipodi:docname="icon_engineer.svg">
  <defs
     id="defs4511" />
  <sodipodi:namedview
     id="base"
     pagecolor="#ffffff"
     bordercolor="#666666"
     borderopacity="1.0"
     inkscape:pageopacity="0.0"
     inkscape:pageshadow="2"
     inkscape:zoom="0.98994949"
     inkscape:cx="202.75626"
     inkscape:cy="226.23124"
     inkscape:document-units="px"
     inkscape:current-layer="layer1"
     showgrid="false"
     units="px"
     inkscape:window-width="683"
     inkscape:window-height="704"
     inkscape:window-x="0"
     inkscape:window-y="27"
     inkscape:window-maximized="0" />
  <metadata
     id="metadata4514">
    <rdf:RDF>
      <cc:Work
         rdf:about="">
        <dc:format>image/svg+xml</dc:format>
        <dc:type
           rdf:resource="http://purl.org/dc/dcmitype/StillImage" />
        <dc:title></dc:title>
      </cc:Work>
    </rdf:RDF>
  </metadata>
  <g
     inkscape:label="Layer 1"
     inkscape:groupmode="layer"
     id="layer1"
     transform="translate(0,-652.36216)">
    <g
       style="display:inline"
       id="g8200"
       transform="matrix(1.249788,0,0,1.249788,-337.5331,-701.54004)">
      <g
         id="g8171">
        <path
           style="opacity:1;fill:#03abf4;fill-opacity:1;stroke:none;stroke-width:5;stroke-miterlimit:4;stroke-dasharray:none;stroke-dashoffset:0;stroke-opacity:1"
           d="m 412.58964,1125.6348 a 69.776006,66.869088 0 0 0 -69.6235,63.961 l 139.29261,0 a 69.776006,66.869088 0 0 0 -69.66911,-63.961 z"
           id="path5892-4"
           inkscape:connector-curvature="0" />
        <rect
           style="opacity:1;fill:#05376c;fill-opacity:1;stroke:none;stroke-width:5;stroke-miterlimit:4;stroke-dasharray:none;stroke-dashoffset:0;stroke-opacity:1"
           id="rect5884-1"
           width="158.76569"
           height="20.028423"
           x="332.70172"
           y="1185.0741"
           rx="11.817293" />
        <rect
           rx="4.6646409"
           y="402.47769"
           x="-1179.5824"
           height="20.899094"
           width="62.669586"
           id="rect5898-3"
           style="opacity:1;fill:#03abf4;fill-opacity:1;stroke:none;stroke-width:5;stroke-miterlimit:4;stroke-dasharray:none;stroke-dashoffset:0;stroke-opacity:1"
           transform="matrix(0,-1,1,0,0,0)"
           ry="13.347774" />
        <rect
           rx="2.771327"
           y="443.60168"
           x="-1162.2216"
           height="10.449548"
           width="37.232868"
           id="rect5900-9"
           style="opacity:1;fill:#ffffff;fill-opacity:1;stroke:none;stroke-width:5;stroke-miterlimit:4;stroke-dasharray:none;stroke-dashoffset:0;stroke-opacity:1"
           transform="matrix(0,-1,1,0,0,0)" />
        <rect
           transform="matrix(0,-1,1,0,0,0)"
           style="opacity:1;fill:#ffffff;fill-opacity:1;stroke:none;stroke-width:5;stroke-miterlimit:4;stroke-dasharray:none;stroke-dashoffset:0;stroke-opacity:1"
           id="rect5910-6"
           width="37.232868"
           height="10.78663"
           x="-1161.2526"
           y="369.44366"
           rx="2.771327" />
        <path
           inkscape:connector-curvature="0"
           id="path5912-3"
           d="m 411.69862,1277.8762 a 66.869088,66.869088 0 0 0 66.72294,-63.9608 l -133.48959,0 a 66.869088,66.869088 0 0 0 66.76665,63.9608 z"
           style="opacity:1;fill:#000000;fill-opacity:0;stroke:#03abf4;stroke-width:8.26786518;stroke-miterlimit:4;stroke-dasharray:none;stroke-dashoffset:0;stroke-opacity:1" />
        <rect
           rx="1.7614131"
           y="1266.4996"
           x="379.7731"
           height="6.8853798"
           width="23.66464"
           id="rect5920"
           style="opacity:1;fill:#05376c;fill-opacity:1;stroke:none;stroke-width:5;stroke-miterlimit:4;stroke-dasharray:none;stroke-dashoffset:0;stroke-opacity:1"
           transform="matrix(0.99983969,-0.01790498,0.01630285,0.9998671,0,0)"
           ry="0" />
        <path
           style="fill:#03abf4;fill-opacity:1;fill-rule:evenodd;stroke:#03abf4;stroke-width:0.63958472px;stroke-linecap:butt;stroke-linejoin:miter;stroke-opacity:1"
           d="m 453.27204,1213.9012 c 0,0 6.78382,20.9974 19.70539,21.3204 0,0 3.55343,-6.4607 6.13773,-22.6127 z"
           id="path5924-5"
           inkscape:connector-curvature="0" />
        <path
           style="fill:#03abf4;fill-opacity:1;fill-rule:evenodd;stroke:#03abf4;stroke-width:0.63958472px;stroke-linecap:butt;stroke-linejoin:miter;stroke-opacity:1"
           d="m 454.56421,1213.9012 c 0,0 -41.34901,32.9499 -101.43428,28.1044 0,0 -8.72205,-13.2447 -7.75293,-28.1044 z"
           id="path5926-0"
           inkscape:connector-curvature="0" />
        <path
           style="opacity:1;fill:#05376c;fill-opacity:1;stroke:#05376c;stroke-width:3.06152868;stroke-miterlimit:4;stroke-dasharray:none;stroke-dashoffset:0;stroke-opacity:1"
           d="m 412.35091,1306.9761 c 5.13002,-0.01 8.33752,-4.4221 8.63529,-12.929 l -8.06712,-0.4178 -8.65573,0.3132 c 0.29792,8.5111 4.78591,13.0312 8.08756,13.0336 z"
           id="path7359"
           inkscape:connector-curvature="0"
           sodipodi:nodetypes="ccccc" />
        <path
           inkscape:connector-curvature="0"
           id="path7361"
           d="m 412.69498,1312.1719 a 14.789424,41.297627 0 0 1 14.75709,39.5018 l -29.52387,0 a 14.789424,41.297627 0 0 1 14.76678,-39.5018 z"
           style="opacity:1;fill:#05376c;fill-opacity:1;stroke:#05376c;stroke-width:2.80740833;stroke-miterlimit:4;stroke-dasharray:none;stroke-dashoffset:0;stroke-opacity:1" />
        <path
           style="opacity:1;fill:#000000;fill-opacity:0;stroke:#03abf4;stroke-width:7.91523123;stroke-miterlimit:4;stroke-dasharray:none;stroke-dashoffset:0;stroke-opacity:1"
           d="m 408.46766,1293.3238 c 45.79735,0.04 78.26057,25.6439 80.25226,58.1076 l -154.73241,0 c 1.99268,-32.479 28.66113,-58.0887 74.48015,-58.1076 z"
           id="path7363"
           inkscape:connector-curvature="0"
           sodipodi:nodetypes="cccc" />
      </g>
      <g
         id="g8185">
        <g
           id="g7847"
           transform="matrix(0.81501719,-0.32713807,0.32713807,0.81501719,468.4017,1277.9931)"
           style="fill:#05376c;fill-opacity:1">
          <path
             style="fill:#05376c;fill-opacity:1"
             inkscape:connector-curvature="0"
             d="m 56.5,7.4 -1,0 0,21.6 0,0 c -6.6,5.7 -16.4,5.7 -23,0 l 0,-21.6 -1,0 C 24,11.7 19,19.7 19,29 c 0,6.4 2.5,12.6 6.9,17.2 l 2.1,2.2 c 4.4,4.6 6.9,15.8 6.9,22.2 l 0,0 0,44.4 c 0,5 4,9 9,9 5,0 9,-4 9,-9 l 0,-44.4 c 0,-6.4 2.5,-17.6 6.9,-22.2 l 2.1,-2.2 C 66.5,41.6 69,35.4 69,29 l 0,0 C 69,19.7 64,11.7 56.5,7.4 Z M 44,117 c -1.1,0 -2,-0.9 -2,-2 0,-1.1 0.9,-2 2,-2 1.1,0 2,0.9 2,2 0,1.1 -0.9,2 -2,2 z"
             id="path7849" />
        </g>
        <g
           id="g7859"
           transform="matrix(0.81501719,-0.32713807,0.32713807,0.81501719,468.4017,1277.9931)"
           style="fill:#ffffff">
          <path
             style="fill:#ffffff"
             inkscape:connector-curvature="0"
             d="m 44,118.5 c -1.9,0 -3.5,-1.6 -3.5,-3.5 0,-1.9 1.6,-3.5 3.5,-3.5 1.9,0 3.5,1.6 3.5,3.5 0,1.9 -1.6,3.5 -3.5,3.5 z m 0,-4 c -0.3,0 -0.5,0.2 -0.5,0.5 0,0.3 0.2,0.5 0.5,0.5 0.3,0 0.5,-0.2 0.5,-0.5 0,-0.3 -0.2,-0.5 -0.5,-0.5 z"
             id="path7861" />
        </g>
        <g
           id="g7863"
           transform="matrix(0.81501719,-0.32713807,0.32713807,0.81501719,468.4017,1277.9931)"
           style="fill:#05376c;fill-opacity:1">
          <path
             style="fill:#05376c;fill-opacity:1"
             inkscape:connector-curvature="0"
             d="M 44,34.8 C 39.5,34.8 35.1,33.3 31.5,30.2 31.2,29.8 31,29.4 31,29 L 31,9.4 C 24.5,13.8 20.5,21.1 20.5,29 c 0,0.8 -0.7,1.5 -1.5,1.5 -0.8,0 -1.5,-0.7 -1.5,-1.5 0,-9.4 5.1,-18.2 13.2,-22.9 0.2,-0.1 0.5,-0.2 0.8,-0.2 l 1,0 c 0.8,0 1.5,0.7 1.5,1.5 l 0,20.9 c 5.8,4.6 14.2,4.6 20,0 L 54,7.4 c 0,-0.8 0.7,-1.5 1.5,-1.5 l 1,0 c 0.3,0 0.5,0.1 0.8,0.2 8.2,4.7 13.2,13.5 13.2,22.9 0,0.8 -0.7,1.5 -1.5,1.5 -0.8,0 -1.5,-0.7 -1.5,-1.5 0,-7.9 -4,-15.2 -10.5,-19.6 L 57,29 c 0,0.4 -0.2,0.9 -0.5,1.1 -3.6,3.1 -8,4.7 -12.5,4.7 z"
             id="path7865" />
        </g>
        <g
           id="g7867"
           transform="matrix(0.81501719,-0.32713807,0.32713807,0.81501719,468.4017,1277.9931)">
          <path
             style="fill:#62345b"
             inkscape:connector-curvature="0"
             d="m 69,30.5 c -0.8,0 -1.5,-0.7 -1.5,-1.5 l 0,0 c 0,-0.8 0.7,-1.5 1.5,-1.5 0.8,0 1.5,0.7 1.5,1.5 0,0.8 -0.7,1.5 -1.5,1.5 z"
             id="path7869" />
        </g>
        <g
           id="g7871"
           transform="matrix(0.81501719,-0.32713807,0.32713807,0.81501719,468.4017,1277.9931)"
           style="fill:#05376c;fill-opacity:1">
          <path
             style="fill:#05376c;fill-opacity:1"
             inkscape:connector-curvature="0"
             d="m 44,125.5 c -5.8,0 -15.165116,-6.37635 -14.610057,-12.14973 L 33.5,70.6 C 34.064629,64.72708 31.2,53.8 27,49.4 L 24.9,47.2 C 20.2,42.3 17.6,35.8 17.6,29 c 0,-0.8 0.7,-1.5 1.5,-1.5 0.8,0 0,0.7 0,1.5 0,6.1 3.8,11.8 8,16.2 l 2.1,2.2 c 4.8,5 7.3,16.7 7.3,23.3 l 0,44.3 c 0,4.1 3.4,7.5 7.5,7.5 4.1,0 7.5,-3.4 7.5,-7.5 l 0,-44.4 c 0,-6.5 2.6,-18.3 7.3,-23.3 l 2.1,-2.2 c 4.2,-4.4 8,-10.1 8,-16.2 0,-0.8 -0.8,-1.5 0,-1.5 l 0,0 c 0.8,0 1.5,0.7 1.5,1.5 0,6.8 -2.6,13.3 -7.3,18.2 L 61,49.5 c -4.2,4.4 -6.966914,15.318504 -6.5,21.2 l 3.542289,44.62055 C 58.501289,121.10236 49.8,125.5 44,125.5 Z"
             id="path7873"
             sodipodi:nodetypes="sssscsssscssssscssccsccsss" />
        </g>
        <g
           id="g7875"
           transform="matrix(0.81501719,-0.32713807,0.32713807,0.81501719,468.4017,1277.9931)"
           style="fill:#000000;fill-opacity:0">
          <path
             style="fill:#000000;fill-opacity:0"
             inkscape:connector-curvature="0"
             d="M 44,55.5 C 29.4,55.5 17.5,43.6 17.5,29 c 0,-0.8 0.7,-1.5 1.5,-1.5 0.8,0 1.5,0.7 1.5,1.5 0,13 10.5,23.5 23.5,23.5 13,0 23.5,-10.5 23.5,-23.5 0,-0.8 0.7,-1.5 1.5,-1.5 0.8,0 1.5,0.7 1.5,1.5 0,14.6 -11.9,26.5 -26.5,26.5 z"
             id="path7877" />
        </g>
        <path
           style="fill:none;fill-rule:evenodd;stroke:#ffffff;stroke-width:5.21416426;stroke-linecap:butt;stroke-linejoin:miter;stroke-miterlimit:4;stroke-dasharray:none;stroke-opacity:1"
           d="m 506.56069,1312.1941 c 0,0 19.04293,1.572 30.39382,-12.973"
           id="path8001"
           inkscape:connector-curvature="0"
           sodipodi:nodetypes="cc" />
      </g>
    </g>
  </g>
</svg>
