<?xml version="1.0" encoding="UTF-8" standalone="no"?>
<!-- Created with Inkscape (http://www.inkscape.org/) -->

<svg
   xmlns:dc="http://purl.org/dc/elements/1.1/"
   xmlns:cc="http://creativecommons.org/ns#"
   xmlns:rdf="http://www.w3.org/1999/02/22-rdf-syntax-ns#"
   xmlns:svg="http://www.w3.org/2000/svg"
   xmlns="http://www.w3.org/2000/svg"
   xmlns:sodipodi="http://sodipodi.sourceforge.net/DTD/sodipodi-0.dtd"
   xmlns:inkscape="http://www.inkscape.org/namespaces/inkscape"
   width="400"
   height="400"
   viewBox="0 0 400 400.00001"
   id="svg4509"
   version="1.1"
   inkscape:version="0.91 r13725"
   sodipodi:docname="icon_events.svg">
  <defs
     id="defs4511" />
  <sodipodi:namedview
     id="base"
     pagecolor="#ffffff"
     bordercolor="#666666"
     borderopacity="1.0"
     inkscape:pageopacity="0.0"
     inkscape:pageshadow="2"
     inkscape:zoom="0.98994949"
     inkscape:cx="202.75626"
     inkscape:cy="226.23124"
     inkscape:document-units="px"
     inkscape:current-layer="layer1"
     showgrid="false"
     units="px"
     inkscape:window-width="683"
     inkscape:window-height="704"
     inkscape:window-x="0"
     inkscape:window-y="27"
     inkscape:window-maximized="0" />
  <metadata
     id="metadata4514">
    <rdf:RDF>
      <cc:Work
         rdf:about="">
        <dc:format>image/svg+xml</dc:format>
        <dc:type
           rdf:resource="http://purl.org/dc/dcmitype/StillImage" />
        <dc:title></dc:title>
      </cc:Work>
    </rdf:RDF>
  </metadata>
  <g
     inkscape:label="Layer 1"
     inkscape:groupmode="layer"
     id="layer1"
     transform="translate(0,-652.36216)">
    <g
       style="display:inline"
       id="g9481"
       transform="matrix(1.2750918,0,0,1.2750918,-1793.3866,-792.26373)">
      <g
         transform="translate(0,32)"
         id="g8326">
        <rect
           rx="8.6908541"
           y="1127.698"
           x="1429.5139"
           height="67.813538"
           width="129.74203"
           id="rect7230"
           style="opacity:1;fill:#ffffff;fill-opacity:1;stroke:#05376c;stroke-width:8.37890434;stroke-miterlimit:4;stroke-dasharray:none;stroke-dashoffset:0;stroke-opacity:1" />
        <path
           style="fill:none;fill-rule:evenodd;stroke:#05376c;stroke-width:5.86523342;stroke-linecap:round;stroke-linejoin:miter;stroke-miterlimit:4;stroke-dasharray:none;stroke-opacity:1"
           d="m 1537.8155,1195.1402 c 0,0 17.8259,8.5827 -0.7861,33.6928 0,0 4.1293,-25.0147 -20.4163,-33.4787"
           id="path7232"
           inkscape:connector-curvature="0"
           sodipodi:nodetypes="ccc" />
        <rect
           style="display:inline;opacity:1;fill:#03abf4;fill-opacity:1;stroke:none;stroke-width:5;stroke-miterlimit:4;stroke-dasharray:none;stroke-dashoffset:0;stroke-opacity:1"
           id="rect7234"
           width="34.455505"
           height="6.4803877"
           x="1447.9303"
           y="1145.4016"
           rx="3.6189656" />
        <rect
           rx="6.7304535"
           y="1157.9146"
           x="1447.0837"
           height="6.4803877"
           width="64.079407"
           id="rect7236"
           style="display:inline;opacity:1;fill:#03abf4;fill-opacity:1;stroke:none;stroke-width:5;stroke-miterlimit:4;stroke-dasharray:none;stroke-dashoffset:0;stroke-opacity:1" />
        <rect
           style="display:inline;opacity:1;fill:#03abf4;fill-opacity:1;stroke:none;stroke-width:5;stroke-miterlimit:4;stroke-dasharray:none;stroke-dashoffset:0;stroke-opacity:1"
           id="rect7238"
           width="62.386612"
           height="6.4803877"
           x="1448.7595"
           y="1169.7323"
           rx="6.5526543" />
      </g>
      <path
         inkscape:connector-curvature="0"
         id="path7143"
         d="m 1648.9621,1271.2843 a 51.829752,51.829752 0 0 0 51.7164,-49.5757 l -103.4668,0 a 51.829752,51.829752 0 0 0 51.7504,49.5757 z"
         style="opacity:1;fill:#000000;fill-opacity:0;stroke:#05376c;stroke-width:5.86523342;stroke-miterlimit:4;stroke-dasharray:none;stroke-dashoffset:0;stroke-opacity:1" />
      <rect
         rx="1.3652203"
         y="1279.8572"
         x="1616.8101"
         height="4.8461022"
         width="18.341778"
         id="rect7145"
         style="opacity:1;fill:#05376c;fill-opacity:1;stroke:none;stroke-width:5;stroke-miterlimit:4;stroke-dasharray:none;stroke-dashoffset:0;stroke-opacity:1"
         transform="matrix(0.99986782,-0.01625865,0.01795365,0.99983882,0,0)"
         ry="0" />
      <path
         style="opacity:1;fill:#03abf4;fill-opacity:1;stroke:none;stroke-width:5;stroke-miterlimit:4;stroke-dasharray:none;stroke-dashoffset:0;stroke-opacity:1"
         d="m 1648.4888,1160.1387 a 54.676747,55.789479 0 0 0 -54.5573,53.3633 l 109.1502,0 a 54.676747,55.789479 0 0 0 -54.5929,-53.3633 z"
         id="path7200"
         inkscape:connector-curvature="0" />
      <rect
         rx="4.1894522"
         y="1221.9551"
         x="1610.3743"
         height="15.560822"
         width="32.318634"
         id="rect7202"
         style="opacity:1;fill:#ffffff;fill-opacity:1;stroke:#03abf4;stroke-width:4.18945217;stroke-linecap:round;stroke-miterlimit:4;stroke-dasharray:none;stroke-dashoffset:0;stroke-opacity:1" />
      <rect
         style="opacity:1;fill:#ffffff;fill-opacity:1;stroke:#03abf4;stroke-width:4.18945217;stroke-linecap:round;stroke-miterlimit:4;stroke-dasharray:none;stroke-dashoffset:0;stroke-opacity:1"
         id="rect7204"
         width="32.318634"
         height="15.560822"
         x="1654.0643"
         y="1221.3567"
         rx="4.1894522" />
      <rect
         ry="0"
         transform="matrix(0.99988597,-0.01510147,0.01932924,0.99981317,0,0)"
         style="opacity:1;fill:#03abf4;fill-opacity:1;stroke:none;stroke-width:5;stroke-miterlimit:4;stroke-dasharray:none;stroke-dashoffset:0;stroke-opacity:1"
         id="rect7206"
         width="13.257835"
         height="3.2536411"
         x="1617.632"
         y="1253.6372"
         rx="0.98681074" />
      <path
         inkscape:connector-curvature="0"
         id="path7208"
         d="m 1651.2069,1179.1978 c 0,0 -20.6479,-0.2992 -23.9396,-20.9472 0,0 -7.4813,21.2464 3.8901,32.0194"
         style="fill:#03abf4;fill-opacity:1;fill-rule:evenodd;stroke:#03abf4;stroke-width:0.83789045px;stroke-linecap:butt;stroke-linejoin:miter;stroke-opacity:1" />
      <path
         style="fill:#03abf4;fill-opacity:1;fill-rule:evenodd;stroke:#03abf4;stroke-width:0.83789045px;stroke-linecap:butt;stroke-linejoin:miter;stroke-opacity:1"
         d="m 1625.6658,1195.8111 c 0,0 9.3333,-18.4206 -7.4181,-30.9334 0,0 22.2892,3.2529 26.5413,18.3286"
         id="path7210"
         inkscape:connector-curvature="0" />
      <path
         style="fill:#03abf4;fill-opacity:1;fill-rule:evenodd;stroke:#03abf4;stroke-width:0.83789045px;stroke-linecap:butt;stroke-linejoin:miter;stroke-opacity:1"
         d="m 1649.1915,1176.665 c 0,0 -20.526,2.2603 -26.3496,-17.8211 0,0 -4.7923,22.0093 7.8256,31.2911"
         id="path7842"
         inkscape:connector-curvature="0" />
      <g
         transform="translate(-4.2426407,36.242641)"
         id="g8317">
        <path
           style="opacity:1;fill:#ffffff;fill-opacity:1;stroke:#05376c;stroke-width:5.86523342;stroke-miterlimit:4;stroke-dasharray:none;stroke-dashoffset:0;stroke-opacity:1"
           d="m 1607.3044,1359.708 c 27.7234,-0.034 48.4372,-22.7674 49.6429,-50.4646 l -98.4308,1.7776 c 1.2061,27.71 21.0515,48.6706 48.7879,48.687 z"
           id="path7103"
           inkscape:connector-curvature="0"
           sodipodi:nodetypes="cccc" />
        <path
           inkscape:connector-curvature="0"
           id="path7109"
           d="m 1635.1762,1291.4618 c 0,0 -29.7096,33.6117 -80.9337,42.6832 0,0 2.6189,-13.5291 1.1637,-24.943 z"
           style="fill:#05376c;fill-opacity:1;fill-rule:evenodd;stroke:#05376c;stroke-width:0.52199692px;stroke-linecap:butt;stroke-linejoin:miter;stroke-opacity:1"
           inkscape:transform-center-x="5.1480548"
           inkscape:transform-center-y="8.3245072"
           sodipodi:nodetypes="cccc" />
        <path
           inkscape:connector-curvature="0"
           id="path7178"
           d="m 1607.2207,1255.9488 a 53.207708,55.789479 0 0 0 -53.0914,53.3632 l 106.2176,0 a 53.207708,55.789479 0 0 0 -53.1262,-53.3632 z"
           style="opacity:1;fill:#05376c;fill-opacity:1;stroke:none;stroke-width:5;stroke-miterlimit:4;stroke-dasharray:none;stroke-dashoffset:0;stroke-opacity:1" />
        <path
           style="fill:none;fill-rule:evenodd;stroke:#03abf4;stroke-width:4.18945217;stroke-linecap:round;stroke-linejoin:miter;stroke-miterlimit:4;stroke-dasharray:none;stroke-opacity:1"
           d="m 1594.5858,1340.4344 c 0,0 12.5332,12.3486 26.9263,0.8225"
           id="path7194"
           inkscape:connector-curvature="0" />
        <path
           sodipodi:nodetypes="cccc"
           inkscape:transform-center-y="8.3245072"
           inkscape:transform-center-x="-5.1480782"
           style="fill:#05376c;fill-opacity:1;fill-rule:evenodd;stroke:#05376c;stroke-width:0.52199692px;stroke-linecap:butt;stroke-linejoin:miter;stroke-opacity:1"
           d="m 1579.3838,1291.4618 c 0,0 29.7096,33.6117 80.9336,42.6832 0,0 -2.6188,-13.5291 -1.1637,-24.943 z"
           id="path7222"
           inkscape:connector-curvature="0" />
        <path
           sodipodi:nodetypes="ccccc"
           inkscape:connector-curvature="0"
           id="path7224"
           d="m 1659.9035,1306.4044 2.4908,68.5814 -23.9878,-21.9216 -9.2014,0.9449 c 0,0 31.1215,-7.1821 30.5231,-47.8795"
           style="fill:#05376c;fill-opacity:1;fill-rule:evenodd;stroke:#05376c;stroke-width:0.83789045px;stroke-linecap:butt;stroke-linejoin:miter;stroke-opacity:1" />
        <path
           style="fill:#05376c;fill-opacity:1;fill-rule:evenodd;stroke:#05376c;stroke-width:0.83789045px;stroke-linecap:butt;stroke-linejoin:miter;stroke-opacity:1"
           d="m 1554.7382,1305.2195 -2.4908,68.5814 23.9878,-21.9216 9.2014,0.9449 c 0,0 -31.1215,-7.1821 -30.523,-47.8796"
           id="path7844"
           inkscape:connector-curvature="0"
           sodipodi:nodetypes="ccccc" />
      </g>
      <g
         id="g9241">
        <path
           style="opacity:1;fill:#03abf4;fill-opacity:1;stroke:none;stroke-width:5;stroke-miterlimit:4;stroke-dasharray:none;stroke-dashoffset:0;stroke-opacity:1"
           d="m 1475.5005,1259.7406 c -29.1019,0.039 -52.5993,19.4387 -53.8648,51.258 l 107.5557,0.4168 c -1.2663,-31.8344 -24.5754,-51.6562 -53.6909,-51.6748 z"
           id="path7115"
           inkscape:connector-curvature="0"
           sodipodi:nodetypes="cccc" />
        <path
           inkscape:connector-curvature="0"
           id="path7123"
           d="m 1475.5846,1363.38 c 27.7232,-0.034 49.2539,-21.8786 50.4596,-49.5757 l -101.3722,-2.0946 c 1.2064,27.71 23.1763,51.6539 50.9126,51.6703 z"
           style="opacity:1;fill:#000000;fill-opacity:0;stroke:#03abf4;stroke-width:5.86523342;stroke-miterlimit:4;stroke-dasharray:none;stroke-dashoffset:0;stroke-opacity:1"
           sodipodi:nodetypes="cccc" />
        <rect
           rx="5.761106"
           y="1361.0948"
           x="1434.3809"
           height="12.775175"
           width="12.998382"
           id="rect7125"
           style="opacity:1;fill:#05376c;fill-opacity:1;stroke:none;stroke-width:5;stroke-miterlimit:4;stroke-dasharray:none;stroke-dashoffset:0;stroke-opacity:1"
           transform="matrix(0.99994041,-0.01091646,0.02673632,0.99964252,0,0)"
           ry="0" />
        <path
           style="fill:#03abf4;fill-opacity:1;fill-rule:evenodd;stroke:#03abf4;stroke-width:0.49573752px;stroke-linecap:butt;stroke-linejoin:miter;stroke-opacity:1"
           d="m 1501.9426,1313.7932 c 0,0 11.1233,16.2751 21.1387,16.5254 0,0 2.7543,-5.0076 4.7574,-17.527 z"
           id="path7127"
           inkscape:connector-curvature="0"
           sodipodi:nodetypes="cccc" />
        <path
           style="fill:#03abf4;fill-opacity:1;fill-rule:evenodd;stroke:#03abf4;stroke-width:0.49573752px;stroke-linecap:butt;stroke-linejoin:miter;stroke-opacity:1"
           d="m 1508.8094,1313.7932 c 0,0 -32.0494,25.5392 -78.621,21.7835 0,0 -6.7604,-10.2657 -6.0093,-21.7835 z"
           id="path7129"
           inkscape:connector-curvature="0" />
        <path
           inkscape:connector-curvature="0"
           id="path8153"
           d="m 1497.9603,1307.1681 c 0,0 -23.6639,17.0831 -70.4019,16.3356 0,0 -0.7846,2.9568 -0.031,0.6644 z"
           style="fill:#05376c;fill-opacity:1;fill-rule:evenodd;stroke:#03abf4;stroke-width:0.22155723px;stroke-linecap:butt;stroke-linejoin:miter;stroke-opacity:1"
           sodipodi:nodetypes="cccc" />
        <path
           sodipodi:nodetypes="cccc"
           inkscape:connector-curvature="0"
           id="path8155"
           d="m 1500.4426,1306.7932 c 0,0 13.1233,8.7751 23.1387,9.0254 0,0 -2.2457,9.4924 -0.2426,-3.027 z"
           style="fill:#05376c;fill-opacity:1;fill-rule:evenodd;stroke:#03abf4;stroke-width:0.49573752px;stroke-linecap:butt;stroke-linejoin:miter;stroke-opacity:1" />
        <path
           sodipodi:nodetypes="cccc"
           style="fill:#05376c;fill-opacity:1;fill-rule:evenodd;stroke:#03abf4;stroke-width:0.22155723px;stroke-linecap:butt;stroke-linejoin:miter;stroke-opacity:1"
           d="m 1496.5368,1304.5309 c 0,0 -26.6357,11.931 -72.2517,1.724 0,0 -1.3677,2.7363 -0.165,0.6443 z"
           id="path9239"
           inkscape:connector-curvature="0" />
      </g>
    </g>
  </g>
</svg>
