<?xml version="1.0" encoding="UTF-8" standalone="no"?>
<!-- Created with Inkscape (http://www.inkscape.org/) -->

<svg
   xmlns:dc="http://purl.org/dc/elements/1.1/"
   xmlns:cc="http://creativecommons.org/ns#"
   xmlns:rdf="http://www.w3.org/1999/02/22-rdf-syntax-ns#"
   xmlns:svg="http://www.w3.org/2000/svg"
   xmlns="http://www.w3.org/2000/svg"
   xmlns:sodipodi="http://sodipodi.sourceforge.net/DTD/sodipodi-0.dtd"
   xmlns:inkscape="http://www.inkscape.org/namespaces/inkscape"
   width="100"
   height="100"
   viewBox="0 0 100 100"
   id="svg5269"
   version="1.1"
   inkscape:version="0.91 r13725"
   sodipodi:docname="instagram_2.svg">
  <defs
     id="defs5271" />
  <sodipodi:namedview
     id="base"
     pagecolor="#ffffff"
     bordercolor="#666666"
     borderopacity="1.0"
     inkscape:pageopacity="0.0"
     inkscape:pageshadow="2"
     inkscape:zoom="3.959798"
     inkscape:cx="15.311394"
     inkscape:cy="53.226294"
     inkscape:document-units="px"
     inkscape:current-layer="layer1"
     showgrid="false"
     units="px"
     inkscape:window-width="1366"
     inkscape:window-height="704"
     inkscape:window-x="0"
     inkscape:window-y="27"
     inkscape:window-maximized="1" />
  <metadata
     id="metadata5274">
    <rdf:RDF>
      <cc:Work
         rdf:about="">
        <dc:format>image/svg+xml</dc:format>
        <dc:type
           rdf:resource="http://purl.org/dc/dcmitype/StillImage" />
        <dc:title></dc:title>
      </cc:Work>
    </rdf:RDF>
  </metadata>
  <g
     inkscape:label="Layer 1"
     inkscape:groupmode="layer"
     id="layer1"
     transform="translate(0,-952.36216)">
    <g
       style="display:inline;fill:#05376c;fill-opacity:1"
       transform="matrix(0.18190967,0,0,0.18798863,3.2604296,953.44927)"
       id="g6124">
      <path
         style="fill:#05376c;fill-opacity:1"
         inkscape:connector-curvature="0"
         d="m 505,260 c 0,35 0,70 0,105 0,59.4 -28.8,100.6 -80.4,127.1 -21.2,10.9 -44.1,15.8 -67.9,15.8 -67.5,0.1 -135,1.2 -202.5,-0.4 C 99.9,506.3 56.5,482.5 27.3,435.7 15.1,416.2 9.2,394.6 9.1,371.7 9,297.7 8.6,223.7 9.2,149.7 9.6,99 34.3,61.5 76.5,34.9 c 25,-15.7 52.7,-22.8 82.1,-22.9 65.7,-0.1 131.3,-0.5 197,0.1 50.7,0.5 92.9,20.1 123.9,61 17.1,22.6 25.5,48.5 25.5,76.9 0,36.7 0,73.3 0,110 z m -37,0.5 c 0,-36.8 0,-73.7 0,-110.5 0,-20 -5.9,-38.2 -17.7,-54.1 C 427.4,65 395.7,49.8 357.9,49.3 291.2,48.5 224.6,49 157.9,49.1 c -20.7,0 -40.4,4.9 -58.3,15.2 -34.5,19.9 -53.8,49.1 -53.6,90 0.2,71.8 0,143.7 0.1,215.5 0,20.1 5.9,38.5 17.9,54.6 23,30.9 54.7,46 92.5,46.4 67,0.8 134,0.3 201,0.2 15.3,0 30.1,-3.3 44.2,-9 37.6,-15.2 67.8,-50.3 66.6,-97.4 -1,-34.7 -0.3,-69.4 -0.3,-104.1 z"
         id="path6126" />
      <path
         style="fill:#05376c;fill-opacity:1"
         inkscape:connector-curvature="0"
         d="M 257.1,366 C 192.4,365.8 140.7,314.1 141,249.8 141.2,187 193.9,135.8 258.1,136 322.2,136.2 374.2,188 374,251.5 373.8,314.9 321.4,366.1 257.1,366 Z m 0.7,-193 c -44,-0.1 -79.7,34.8 -79.8,77.9 -0.1,42.9 35.5,78 79,78.2 44.1,0.1 79.9,-34.7 80,-77.6 0.1,-43.3 -35.4,-78.5 -79.2,-78.5 z"
         id="path6128" />
      <path
         style="fill:#05376c;fill-opacity:1"
         inkscape:connector-curvature="0"
         d="m 412,126.6 c 0,14.1 -11.1,25.5 -24.7,25.4 -13.5,-0.1 -24.4,-11.7 -24.2,-25.9 0.1,-13.8 11.1,-25.1 24.5,-25.1 13.4,0 24.4,11.5 24.4,25.6 z"
         id="path6130" />
    </g>
    <path
       inkscape:connector-curvature="0"
       id="circle9338"
       d="m -53.277954,961.78312 a 30.447047,28.452374 0 0 0 -30.20967,25.08949 l 60.404157,0 a 30.447047,28.452374 0 0 0 -30.194487,-25.08949 z"
       style="display:inline;opacity:1;fill:#05376c;fill-opacity:1;stroke:#05376c;stroke-width:5.25586033;stroke-linecap:round;stroke-miterlimit:4;stroke-dasharray:none;stroke-dashoffset:0;stroke-opacity:1" />
  </g>
</svg>
