<?xml version="1.0" encoding="UTF-8" standalone="no"?>
<!-- Created with Inkscape (http://www.inkscape.org/) -->

<svg
   xmlns:dc="http://purl.org/dc/elements/1.1/"
   xmlns:cc="http://creativecommons.org/ns#"
   xmlns:rdf="http://www.w3.org/1999/02/22-rdf-syntax-ns#"
   xmlns:svg="http://www.w3.org/2000/svg"
   xmlns="http://www.w3.org/2000/svg"
   xmlns:sodipodi="http://sodipodi.sourceforge.net/DTD/sodipodi-0.dtd"
   xmlns:inkscape="http://www.inkscape.org/namespaces/inkscape"
   width="100"
   height="100"
   viewBox="0 0 100 100"
   id="svg5269"
   version="1.1"
   inkscape:version="0.91 r13725"
   sodipodi:docname="location.svg">
  <defs
     id="defs5271" />
  <sodipodi:namedview
     id="base"
     pagecolor="#ffffff"
     bordercolor="#666666"
     borderopacity="1.0"
     inkscape:pageopacity="0.0"
     inkscape:pageshadow="2"
     inkscape:zoom="3.959798"
     inkscape:cx="59.758106"
     inkscape:cy="53.547243"
     inkscape:document-units="px"
     inkscape:current-layer="layer1"
     showgrid="false"
     units="px"
     inkscape:window-width="1366"
     inkscape:window-height="704"
     inkscape:window-x="0"
     inkscape:window-y="27"
     inkscape:window-maximized="1" />
  <metadata
     id="metadata5274">
    <rdf:RDF>
      <cc:Work
         rdf:about="">
        <dc:format>image/svg+xml</dc:format>
        <dc:type
           rdf:resource="http://purl.org/dc/dcmitype/StillImage" />
        <dc:title></dc:title>
      </cc:Work>
    </rdf:RDF>
  </metadata>
  <g
     inkscape:label="Layer 1"
     inkscape:groupmode="layer"
     id="layer1"
     transform="translate(0,-952.36216)">
    <g
       style="display:inline"
       transform="matrix(1.8038767,0,0,1.8038767,-1792.2333,-5631.3689)"
       id="g4901">
      <path
         style="fill:#03abf4;fill-opacity:1;stroke:#03abf4;stroke-width:2;stroke-miterlimit:4;stroke-dasharray:none;stroke-opacity:1"
         inkscape:connector-curvature="0"
         d="m 1021.2771,3700.3562 c -0.7027,0 -1.3597,-0.3467 -1.7521,-0.9125 l -11.9182,-17.1199 c -2.5735,-3.0845 -3.988,-7.0268 -3.988,-11.1151 0,-9.6916 7.9212,-17.5762 17.6492,-17.5762 9.728,0 17.64,7.8846 17.64,17.5762 0,2.9749 -0.7665,5.9226 -2.2175,8.5325 -0.055,0.1369 -0.1278,0.2647 -0.2099,0.3924 -0.4745,0.7666 -0.9217,1.4054 -1.3962,1.9986 l -12.046,17.3023 c -0.4015,0.575 -1.0586,0.9217 -1.7613,0.9217 z m -0.01,-44.7982 c -8.6694,0 -15.7236,7.0177 -15.7236,15.6507 0,3.6502 1.2684,7.1637 3.559,9.9105 0.018,0.018 0.037,0.046 0.055,0.064 l 11.9455,17.1564 c 0.037,0.055 0.1095,0.091 0.1734,0.091 0.073,0 0.1369,-0.036 0.1825,-0.091 l 12.0734,-17.3389 c 0.01,-0.018 0.027,-0.036 0.037,-0.055 0.438,-0.5475 0.8487,-1.1316 1.2958,-1.8525 0.01,-0.018 0.018,-0.037 0.027,-0.046 0.01,-0.01 0.01,-0.018 0.018,-0.027 0.018,-0.055 0.046,-0.1095 0.073,-0.1643 1.3141,-2.3362 2.0076,-4.9735 2.0076,-7.6473 0,-8.633 -7.0542,-15.6507 -15.7236,-15.6507 z"
         id="path4542" />
      <ellipse
         ry="5.5378695"
         rx="5.6301675"
         cy="3671.0894"
         cx="1021.125"
         id="ellipse4681-2"
         style="display:inline;opacity:1;fill:#ffffff;fill-opacity:1;stroke:#ffffff;stroke-width:1.0442307;stroke-linecap:round;stroke-miterlimit:4;stroke-dasharray:none;stroke-dashoffset:0;stroke-opacity:1" />
    </g>
  </g>
</svg>
