<?xml version="1.0" encoding="UTF-8" standalone="no"?>
<svg
   xmlns:dc="http://purl.org/dc/elements/1.1/"
   xmlns:cc="http://creativecommons.org/ns#"
   xmlns:rdf="http://www.w3.org/1999/02/22-rdf-syntax-ns#"
   xmlns:svg="http://www.w3.org/2000/svg"
   xmlns="http://www.w3.org/2000/svg"
   xmlns:sodipodi="http://sodipodi.sourceforge.net/DTD/sodipodi-0.dtd"
   xmlns:inkscape="http://www.inkscape.org/namespaces/inkscape"
   enable-background="new 0 0 500 500"
   height="600"
   id="Layer_1"
   version="1.1"
   viewBox="0 0 600 600"
   width="600"
   xml:space="preserve"
   inkscape:version="0.91 r13725"
   sodipodi:docname="lock.svg"><metadata
     id="metadata9"><rdf:RDF><cc:Work
         rdf:about=""><dc:format>image/svg+xml</dc:format><dc:type
           rdf:resource="http://purl.org/dc/dcmitype/StillImage" /><dc:title /></cc:Work></rdf:RDF></metadata><defs
     id="defs7" /><sodipodi:namedview
     pagecolor="#ffffff"
     bordercolor="#666666"
     borderopacity="1"
     objecttolerance="10"
     gridtolerance="10"
     guidetolerance="10"
     inkscape:pageopacity="0"
     inkscape:pageshadow="2"
     inkscape:window-width="1366"
     inkscape:window-height="704"
     id="namedview5"
     showgrid="false"
     inkscape:zoom="0.6675088"
     inkscape:cx="137.09266"
     inkscape:cy="358.15822"
     inkscape:window-x="0"
     inkscape:window-y="27"
     inkscape:window-maximized="1"
     inkscape:current-layer="Layer_1" /><path
     id="path4134"
     d="m 492.83063,577.55053 -375.05471,0 c -25.8982,0 -46.870115,-21.01883 -46.870115,-46.94048 l 0,-234.72588 c 0,-25.92166 20.995371,-46.96395 46.870115,-46.96395 l 23.43506,0 0,-70.399 c 0,-90.737524 73.47206,-164.30342 164.09229,-164.30342 90.62023,0 164.09231,73.565896 164.09231,164.30342 l 0,70.399 23.43505,0 c 25.8982,0 46.8701,21.01883 46.8701,46.96395 l 0,234.72588 c 0,25.8982 -20.99536,46.94048 -46.8701,46.94048 z M 399.06695,178.52122 c 0,-51.84331 -41.99074,-93.88096 -93.76368,-93.88096 -51.77294,0 -93.76368,42.03765 -93.76368,93.88096 l 0,70.399 187.52736,0 0,-70.399 z"
     inkscape:connector-curvature="0"
     style="clip-rule:evenodd;fill:#05376c;fill-opacity:1;fill-rule:evenodd" /></svg>