<?xml version="1.0" encoding="UTF-8" standalone="no"?>
<!-- Created with Inkscape (http://www.inkscape.org/) -->

<svg
   xmlns:dc="http://purl.org/dc/elements/1.1/"
   xmlns:cc="http://creativecommons.org/ns#"
   xmlns:rdf="http://www.w3.org/1999/02/22-rdf-syntax-ns#"
   xmlns:svg="http://www.w3.org/2000/svg"
   xmlns="http://www.w3.org/2000/svg"
   xmlns:sodipodi="http://sodipodi.sourceforge.net/DTD/sodipodi-0.dtd"
   xmlns:inkscape="http://www.inkscape.org/namespaces/inkscape"
   width="100"
   height="100"
   viewBox="0 0 100 100"
   id="svg5269"
   version="1.1"
   inkscape:version="0.91 r13725"
   sodipodi:docname="login_blue.svg">
  <defs
     id="defs5271" />
  <sodipodi:namedview
     id="base"
     pagecolor="#ffffff"
     bordercolor="#666666"
     borderopacity="1.0"
     inkscape:pageopacity="0.0"
     inkscape:pageshadow="2"
     inkscape:zoom="2.8"
     inkscape:cx="-14.517355"
     inkscape:cy="42.621036"
     inkscape:document-units="px"
     inkscape:current-layer="layer1"
     showgrid="false"
     units="px"
     inkscape:window-width="1366"
     inkscape:window-height="704"
     inkscape:window-x="0"
     inkscape:window-y="27"
     inkscape:window-maximized="1" />
  <metadata
     id="metadata5274">
    <rdf:RDF>
      <cc:Work
         rdf:about="">
        <dc:format>image/svg+xml</dc:format>
        <dc:type
           rdf:resource="http://purl.org/dc/dcmitype/StillImage" />
        <dc:title />
      </cc:Work>
    </rdf:RDF>
  </metadata>
  <g
     inkscape:label="Layer 1"
     inkscape:groupmode="layer"
     id="layer1"
     transform="translate(0,-952.36216)">
    <path
       id="path9380"
       d="m 89.494258,962.63286 -33.290191,0 c -1.312585,0 -2.37787,1.06528 -2.37787,2.37787 0,1.31258 1.065285,2.37786 2.37787,2.37786 l 30.912321,0 0,66.58031 -30.912321,0 c -1.312585,0 -2.37787,1.0654 -2.37787,2.378 0,1.3126 1.065285,2.3778 2.37787,2.3778 l 33.290191,0 c 1.312585,0 2.377872,-1.0652 2.377872,-2.3778 l 0,-71.33617 c 0,-1.31259 -1.065287,-2.37787 -2.377872,-2.37787 z"
       inkscape:connector-curvature="0"
       style="fill:#05376c;stroke:#05376c;stroke-width:4.75574207;stroke-miterlimit:4;stroke-dasharray:none;stroke-opacity:1;fill-opacity:1" />
    <path
       id="path9382"
       d="m 44.794279,1014.4635 c -0.929748,0.9392 -0.929748,2.4587 0,3.3956 0.929746,0.9392 2.434939,0.9392 3.362309,0 l 16.40493,-16.6429 c 0.915481,-0.9248 0.924992,-2.47286 0,-3.39789 L 48.15421,981.17558 c -0.929748,-0.93926 -2.43494,-0.93687 -3.36231,0 -0.929747,0.93689 -0.929747,2.45873 0,3.3956 l 12.364929,12.54328 -48.9651178,0 c -1.3125846,0 -2.3778708,1.07481 -2.3778708,2.40165 0,1.32689 1.0652862,2.40169 2.3778708,2.40169 l 48.9674958,0 -12.364928,12.5457 z"
       inkscape:connector-curvature="0"
       style="fill:#05376c;stroke:#05376c;stroke-width:4.756;stroke-miterlimit:4;stroke-dasharray:none;fill-opacity:1;stroke-opacity:1" />
    <rect
       style="opacity:1;fill:#05376c;fill-opacity:1;stroke:none;stroke-width:5;stroke-miterlimit:4;stroke-dasharray:none"
       id="rect4135"
       width="12.5"
       height="21.071428"
       x="-75.35714"
       y="964.86218" />
    <rect
       style="opacity:1;fill:#05376c;fill-opacity:1;stroke:none;stroke-width:5;stroke-miterlimit:4;stroke-dasharray:none"
       id="rect4135-1"
       width="12.5"
       height="21.071428"
       x="-93.392853"
       y="999.505" />
    <rect
       y="999.14789"
       x="-75.535713"
       height="21.071428"
       width="12.5"
       id="rect4160"
       style="opacity:1;fill:#03abf4;fill-opacity:1;stroke:none;stroke-width:5;stroke-miterlimit:4;stroke-dasharray:none" />
  </g>
</svg>
