<?xml version="1.0" encoding="UTF-8" standalone="no"?>
<!-- Created with Inkscape (http://www.inkscape.org/) -->

<svg
   xmlns:dc="http://purl.org/dc/elements/1.1/"
   xmlns:cc="http://creativecommons.org/ns#"
   xmlns:rdf="http://www.w3.org/1999/02/22-rdf-syntax-ns#"
   xmlns:svg="http://www.w3.org/2000/svg"
   xmlns="http://www.w3.org/2000/svg"
   xmlns:sodipodi="http://sodipodi.sourceforge.net/DTD/sodipodi-0.dtd"
   xmlns:inkscape="http://www.inkscape.org/namespaces/inkscape"
   width="400"
   height="400"
   viewBox="0 0 400 400"
   id="svg4509"
   version="1.1"
   inkscape:version="0.91 r13725"
   sodipodi:docname="logo.svg">
  <defs
     id="defs4511" />
  <sodipodi:namedview
     id="base"
     pagecolor="#ffffff"
     bordercolor="#666666"
     borderopacity="1.0"
     inkscape:pageopacity="0.0"
     inkscape:pageshadow="2"
     inkscape:zoom="0.70000001"
     inkscape:cx="175.48465"
     inkscape:cy="122.30957"
     inkscape:document-units="px"
     inkscape:current-layer="layer1"
     showgrid="false"
     units="px"
     inkscape:window-width="947"
     inkscape:window-height="648"
     inkscape:window-x="419"
     inkscape:window-y="30"
     inkscape:window-maximized="0" />
  <metadata
     id="metadata4514">
    <rdf:RDF>
      <cc:Work
         rdf:about="">
        <dc:format>image/svg+xml</dc:format>
        <dc:type
           rdf:resource="http://purl.org/dc/dcmitype/StillImage" />
        <dc:title></dc:title>
      </cc:Work>
    </rdf:RDF>
  </metadata>
  <g
     inkscape:label="Layer 1"
     inkscape:groupmode="layer"
     id="layer1"
     transform="translate(0,-652.36216)">
    <g
       id="g4146"
       transform="translate(9.3741053,3.5020859)">
      <path
         inkscape:connector-curvature="0"
         id="path4828"
         d="m 196.16073,657.4227 c -1.87809,0.26111 -12.65183,6.34728 -63.3584,35.62397 l -62.602998,36.14421 -0.121842,72.33091 -0.121833,72.33464 62.491203,36.09024 c 34.37086,19.84955 62.84055,36.03317 63.26609,35.96313 0.42645,-0.07 28.77555,-16.29846 62.99983,-36.06331 l 62.22531,-35.93603 -0.12616,-72.39648 -0.12624,-72.40021 -16.095,-9.29231 c -55.43158,-32.01181 -107.2821,-61.91621 -108.1589,-62.37942 -0.0564,-0.0308 -0.13927,-0.0348 -0.26542,-0.0175 z m -0.97125,11.15013 c 0.41341,-0.10532 26.55684,14.71799 58.09373,32.94139 l 57.33796,33.13412 0.12616,66.86182 0.12623,66.86565 -55.4534,32.00881 c -30.5004,17.60524 -56.47767,32.57755 -57.72737,33.27282 l -2.27399,1.26417 -57.7043,-33.29991 -57.704305,-33.29984 0.121842,-66.79625 0.121833,-66.79635 57.08772,-32.9838 c 31.39812,-18.14041 57.42759,-33.06739 57.84266,-33.17263 z m 0.2524,53.99662 c -0.27846,0.0133 -22.45706,12.70768 -49.29062,28.20859 l -48.789824,28.18153 -0.13054,24.6087 -0.13054,24.60871 -3.514982,2.42429 c -1.933715,1.33337 -3.514971,2.57668 -3.514971,2.75961 0,0.18276 2.25788,1.87825 5.017911,3.76936 l 5.018366,3.43787 3.15643,-2.2007 c 1.7353,-1.21004 3.99145,-2.77089 5.01835,-3.47256 1.02691,-0.70175 1.87846,-1.40616 1.88846,-1.56476 0,-0.15886 -1.5669,-1.37096 -3.50366,-2.69412 l -3.5189,-2.40496 0,-22.87438 c 0,-12.58061 0.18276,-22.80092 0.40467,-22.70871 0.22192,0.0923 6.21974,3.5251 13.32412,7.62745 l 12.91899,7.45772 0.13056,20.36152 0.13056,20.36145 32.44016,18.78895 c 17.84336,10.33468 32.66874,18.80216 32.94546,18.81601 0.27845,0.0133 15.10201,-8.40887 32.94537,-18.71957 l 32.44024,-18.74662 0.13056,-20.36145 0.13056,-20.35771 16.09111,-9.27695 c 8.84918,-5.10305 16.0911,-9.42112 16.0911,-9.59292 0,-0.40993 -97.17451,-56.46839 -97.82986,-56.43635 z m -59.60455,78.58224 1.13309,0.71305 c 3.55763,2.24559 57.56113,33.19585 58.2247,33.36924 0.43947,0.11487 13.80318,-7.29902 29.69633,-16.47647 15.89315,-9.17743 29.17717,-16.80181 29.5227,-16.939 0.49558,-0.19671 0.6322,3.32407 0.6322,16.59208 l 0,16.83501 -29.49565,17.04301 c -16.22298,9.37257 -29.63631,17.08923 -29.80422,17.15099 -0.16973,0.0622 -13.71527,-7.63343 -30.10492,-17.10086 l -29.80024,-17.21266 0,-16.98524 0,-16.98915 z"
         style="display:inline;fill:#ffffff;fill-opacity:1" />
      <path
         inkscape:connector-curvature="0"
         id="path4828-9"
         d="m 329.87675,1000.4742 c -2.63739,0.048 -5.32834,0.3381 -7.06313,0.8533 -4.19812,1.2466 -7.39388,4.5066 -7.93122,8.0901 -0.87736,5.8505 2.04923,9.8353 10.26318,13.9687 2.61071,1.3138 5.27642,2.9519 5.92279,3.64 1.59406,1.6969 1.31442,4.4594 -0.59526,5.8785 -2.94964,2.1919 -11.42493,0.9676 -14.86737,-2.1476 -0.93193,-0.8434 -0.98003,-0.6852 -0.98003,3.2775 0,4.6432 0,4.6461 4.09191,5.69 3.8925,0.9938 12.62248,0.6373 15.09189,-0.6165 6.04458,-3.0691 8.01866,-9.1382 4.77398,-14.6748 -1.70893,-2.9162 -3.23466,-4.1069 -9.66418,-7.5446 -5.43291,-2.9049 -7.12434,-4.7634 -6.19268,-6.8079 1.08177,-2.3744 3.14402,-3.2829 7.30797,-3.2187 2.92779,0.046 4.30851,0.364 6.23422,1.4402 l 2.47252,1.3827 0,-3.9864 0,-3.9848 -2.11817,-0.6352 c -1.52429,-0.4566 -4.10894,-0.6518 -6.74642,-0.6045 z m -37.23253,0.01 c -3.23904,-0.034 -6.58638,0.459 -8.77753,1.443 -5.71975,2.5686 -9.19634,7.5423 -10.41046,14.894 -1.7817,10.7889 3.30507,20.0861 12.66893,23.1543 0.75367,0.2468 3.60456,0.3865 6.3345,0.3088 4.1319,-0.1176 5.4831,-0.3963 8.06484,-1.6594 5.8235,-2.8493 9.35347,-8.5169 10.04794,-16.1311 0.89067,-9.7637 -3.54481,-18.095 -11.16178,-20.9651 -1.79354,-0.6758 -4.24711,-1.0186 -6.76644,-1.0445 z m -236.988176,0.4909 -6.276951,16.8638 c -3.45221,9.2753 -6.722205,18.0455 -7.267942,19.4902 l -0.992244,2.6276 4.209634,-0.1604 4.20965,-0.1606 1.460245,-4.3847 1.460246,-4.3848 7.176925,-0.1524 7.178196,-0.1523 1.521772,4.6736 1.521779,4.675 3.998296,0 c 2.848604,0 3.988658,-0.1965 3.967718,-0.6847 -0.01826,-0.3768 -3.16369,-9.0711 -6.995069,-19.3204 l -6.967031,-18.6356 -4.102599,-0.147 -4.102625,-0.1472 z m 26.581399,0.02 0,19.458 0,19.4567 3.289649,0 3.288197,0 0,-13.5194 c 0,-7.4356 0.167465,-13.3511 0.374437,-13.145 0.206243,0.2061 2.73557,6.2288 5.620375,13.3831 l 5.244679,13.0072 2.73867,0.1592 2.73859,0.159 5.20591,-13.272 5.2072,-13.2734 0.14748,13.2505 0.14738,13.2508 3.82572,0 3.8272,0 0,-19.4568 0,-19.458 -4.82343,0 -4.82198,0 -5.45332,13.6879 c -2.99947,7.5279 -5.59359,13.693 -5.76338,13.7013 -0.16934,0.01 -2.73376,-6.1504 -5.697944,-13.6867 l -5.38903,-13.7025 -4.852928,0 -4.852744,0 z m 63.863617,0 c -3.30406,0 -4.07022,0.1688 -4.38219,0.9602 -1.42318,3.6115 -13.63047,36.2266 -13.84707,36.9958 -0.23957,0.8515 0.18545,0.9587 3.79112,0.9587 l 4.06111,0 1.52319,-4.675 1.52182,-4.6735 7.18893,0.1524 7.19019,0.1523 1.61538,4.5225 1.61555,4.5212 4.03561,0 c 2.21966,0 4.03579,-0.085 4.03579,-0.1898 0,-0.1756 -9.79089,-26.6566 -12.94966,-35.0249 l -1.39622,-3.7001 -4.00355,0 z m 44.10985,0 0,19.458 0,19.4567 11.23546,0 11.23547,0 0,-3.2882 0,-3.2883 -7.39899,0 -7.39879,0 0,-4.933 0,-4.933 6.30227,0 6.30372,0 0,-3.2883 0,-3.2882 -6.30372,0 -6.30227,0 0,-4.659 0,-4.6589 6.85053,0 6.85199,0 0,-3.2883 0,-3.2895 -10.68847,0 -10.6872,0 z m 24.66389,0 0,3.2895 0,3.2883 5.48001,0 5.48128,0 0,16.1685 0,16.1684 3.56231,0 3.56257,0 0,-16.1684 0,-16.1685 5.48129,0 5.48128,0 0,-3.2883 0,-3.2895 -14.52514,0 -14.5236,0 z m 33.43349,0 0,19.458 0,19.4567 3.83648,0 3.83649,0 0,-7.9471 0,-7.9472 6.57663,0 6.57653,0 0,-3.2882 0,-3.2896 -6.57653,0 -6.57663,0 0,-4.9318 0,-4.933 7.12489,0 7.12471,0 0,-3.2883 0,-3.2895 -10.9612,0 -10.96137,0 z m 44.04308,6.1205 c 4.07131,-0.053 6.80735,1.6884 8.79099,5.5575 1.37144,2.675 1.58859,3.7178 1.59533,7.6316 0.0183,5.1875 -0.91198,7.9288 -3.59856,10.7046 -0.95097,0.9826 -2.6036,2.0285 -3.67198,2.3255 -3.87338,1.0759 -7.9855,0.2709 -10.63637,-2.0822 -3.76935,-3.3459 -4.90414,-12.7018 -2.19971,-18.1289 1.89438,-3.8016 4.70229,-5.6878 8.88856,-5.9733 0.28346,-0.019 0.56029,-0.03 0.83174,-0.034 z m -146.51519,3.6039 c 0.28311,0.1126 1.32898,2.5864 2.42451,5.7634 1.1684,3.3889 2.23186,6.4698 2.36423,6.8467 0.18017,0.5136 -0.93896,0.6859 -4.47585,0.6859 -3.27738,0 -4.71768,-0.1987 -4.71768,-0.6512 0,-0.8122 3.88768,-12.0801 4.35952,-12.6355 0.0182,-0.015 0.0273,-0.016 0.0456,-0.01 z m -86.201843,0.175 c 0.09471,-0.01 0.17657,0.066 0.253925,0.2033 0.595246,1.0634 4.263159,11.7981 4.263159,12.4764 0,0.2422 -2.123209,0.4412 -4.717691,0.4412 -3.54305,0 -4.654528,-0.1714 -4.465027,-0.686 0.13835,-0.3767 1.184119,-3.4938 2.322712,-6.928 1.315538,-3.9678 1.935534,-5.4759 2.342922,-5.5069 z m 107.557473,10.9279 0,2.7413 0,2.74 7.94715,0 7.94724,0 0,-2.74 0,-2.7413 -7.94724,0 -7.94715,0 z"
         style="display:inline;fill:#ffffff;fill-opacity:1" />
    </g>
  </g>
</svg>
