<?xml version="1.0" encoding="UTF-8" standalone="no"?>
<!-- Created with Inkscape (http://www.inkscape.org/) -->

<svg
   xmlns:dc="http://purl.org/dc/elements/1.1/"
   xmlns:cc="http://creativecommons.org/ns#"
   xmlns:rdf="http://www.w3.org/1999/02/22-rdf-syntax-ns#"
   xmlns:svg="http://www.w3.org/2000/svg"
   xmlns="http://www.w3.org/2000/svg"
   xmlns:sodipodi="http://sodipodi.sourceforge.net/DTD/sodipodi-0.dtd"
   xmlns:inkscape="http://www.inkscape.org/namespaces/inkscape"
   width="600mm"
   height="300mm"
   viewBox="0 0 2125.9843 1062.9921"
   id="svg4138"
   version="1.1"
   inkscape:version="0.91 r13725"
   sodipodi:docname="logos.svg">
  <defs
     id="defs4140" />
  <sodipodi:namedview
     id="base"
     pagecolor="#ffffff"
     bordercolor="#666666"
     borderopacity="1.0"
     inkscape:pageopacity="0.0"
     inkscape:pageshadow="2"
     inkscape:zoom="0.24748737"
     inkscape:cx="960.39536"
     inkscape:cy="960.90229"
     inkscape:document-units="px"
     inkscape:current-layer="layer1"
     showgrid="false"
     inkscape:window-width="1366"
     inkscape:window-height="704"
     inkscape:window-x="0"
     inkscape:window-y="27"
     inkscape:window-maximized="1" />
  <metadata
     id="metadata4143">
    <rdf:RDF>
      <cc:Work
         rdf:about="">
        <dc:format>image/svg+xml</dc:format>
        <dc:type
           rdf:resource="http://purl.org/dc/dcmitype/StillImage" />
        <dc:title />
      </cc:Work>
    </rdf:RDF>
  </metadata>
  <g
     inkscape:label="Layer 1"
     inkscape:groupmode="layer"
     id="layer1"
     transform="translate(0,10.629923)">
    <g
       transform="matrix(4.2514089,0,0,4.2514089,1245.8362,-3536.5337)"
       id="layer1-2"
       inkscape:label="Layer 1">
      <path
         inkscape:connector-curvature="0"
         id="path6952"
         d="m 18.454479,1016.681 0,-21.15395 12.876428,0 12.876428,0 0,3.67902 0,3.67883 -8.277786,0 -8.277622,0 0,5.0588 0,5.0586 7.817791,0 7.81779,0 0,3.6787 0,3.6791 -7.81779,0 -7.817791,0 0,5.0586 0,5.0585 8.737618,0 8.737452,0 0,3.679 0,3.679 -13.336095,0 -13.336423,0 0,-21.1542 z m 42.098561,3.909 -0.250294,-17.2451 -5.748384,-0.2738 -5.748385,-0.2738 0,-3.63513 0,-3.63512 16.555243,0 16.555243,0 0,3.63512 0,3.63513 -5.748221,0.2738 -5.748385,0.2738 -0.250294,17.2451 -0.25013,17.2452 -4.558213,0 -4.55805,0 -0.25013,-17.2452 z m 25.962393,-3.909 0,-21.15395 12.8761,0 12.876427,0 0,3.90892 0,3.90893 -8.04918,0 -8.049025,0 0,4.5988 0,4.5986 7.587875,0.2671 7.58771,0.2672 0,3.6417 0,3.6418 -7.81779,0 -7.817626,0 0,8.7375 0,8.7376 -4.598807,0 -4.598642,0 0,-21.1542 z m 42.543597,19.6894 c -4.39502,-2.2372 -9.18463,-7.9951 -10.40586,-12.5091 -0.589,-2.1786 -0.85409,-6.3793 -0.58851,-9.335 1.03454,-11.5197 9.01552,-18.58708 20.8796,-18.49012 7.95501,0.0641 13.10848,2.82049 16.97349,9.07622 2.47188,4.0002 2.79712,5.3367 2.79712,11.4966 0,8.4881 -2.47977,13.6786 -8.58215,17.9628 -3.46895,2.4356 -4.89347,2.8303 -11.03661,3.0571 -5.15297,0.19 -7.85773,-0.1495 -10.03708,-1.2585 z m 17.70713,-1.1703 c 8.53235,-3.8762 12.71044,-13.2621 10.54571,-23.6904 -2.63556,-12.69563 -17.05402,-18.68133 -28.93913,-12.01463 -13.82075,7.75263 -12.30551,30.53693 2.42356,36.43623 3.64052,1.458 11.9921,1.0759 15.96986,-0.7312 z m -12.22547,-5.1664 c -6.10353,-2.6941 -8.40334,-13.1394 -4.56775,-20.7455 6.83371,-13.55178 22.00486,-3.1791 18.08988,12.3682 -1.82437,7.2451 -7.75846,10.9213 -13.52213,8.3773 z m 8.12971,-1.4233 c 3.30395,-1.7681 4.76973,-6.1534 4.37744,-13.0964 -0.33017,-5.846 -0.62155,-6.6382 -3.32959,-9.0576 -3.92368,-3.5061 -6.96846,-3.4041 -10.73224,0.3594 -3.60404,3.6044 -4.76841,8.7989 -3.24232,14.4661 1.87909,6.9792 7.56092,10.2001 12.92671,7.3285 z m 21.33302,7.8995 c -3.3452,-1.5054 -3.34355,-1.5006 -2.03736,-6.2043 l 0.94202,-3.3908 3.16212,1.3214 c 4.12944,1.7253 10.94524,1.7174 12.38242,-0.016 2.09619,-2.5256 0.60675,-4.5896 -5.40458,-7.4884 -7.5772,-3.6539 -11.11534,-7.5118 -11.11074,-12.1146 0.0164,-7.3698 6.8153,-13.02895 15.72499,-13.07168 3.45547,-0.0164 9.46401,1.28035 10.77777,2.32625 0.16106,0.1282 -0.22301,1.9585 -0.85442,4.06643 -0.97422,3.2515 -1.43701,3.7444 -3.05299,3.2498 -5.13342,-1.5704 -9.40584,-1.5701 -10.97663,0 -1.39412,1.3943 -1.42945,1.8266 -0.29039,3.55 0.71341,1.0796 3.04823,2.6155 5.18896,3.4134 12.2751,4.5755 15.64002,15.8819 6.74578,22.6683 -2.92974,2.2352 -4.27242,2.5832 -10.77744,2.7932 -5.00507,0.161 -8.40614,-0.1992 -10.41951,-1.1052 z m 17.57993,-0.8626 c 4.6348,-1.9368 7.02303,-5.5678 7.02303,-10.6784 0,-5.5258 -2.29735,-8.1458 -10.34062,-11.7925 -6.55531,-2.9727 -7.89225,-4.859 -5.75447,-8.1217 1.09272,-1.6678 2.2538,-2.1698 5.01953,-2.1698 1.97885,0 4.65452,0.402 5.94625,0.893 2.0722,0.7879 2.41568,0.6258 2.9184,-1.3777 0.83371,-3.32233 -0.023,-4.69893 -3.34355,-5.36283 -10.21326,-2.04247 -18.63222,2.0719 -19.87219,9.71223 -0.8909,5.491 1.52281,8.6339 9.61275,12.515 6.35514,3.049 7.10455,3.6839 7.35353,6.2324 0.17321,1.7778 -0.28399,3.3029 -1.22452,4.0836 -1.83752,1.5247 -9.49656,1.5249 -12.34561,10e-5 -2.37607,-1.2717 -3.33435,-0.6067 -4.20438,2.9169 -0.54874,2.2225 -0.29237,2.5725 2.46415,3.3661 4.61672,1.3292 13.31753,1.2166 16.7477,-0.2164 z M 76.207027,971.32296 48.883875,955.5185 48.844435,923.23252 48.804995,890.94654 75.522872,875.5379 c 14.694881,-8.4745 27.421598,-15.55176 28.281928,-15.72679 0.86034,-0.17519 13.69979,6.80133 28.53239,15.50362 l 26.96817,15.82196 0.0164,32.16075 0.0164,32.16075 -11.33933,6.53377 c -6.23665,3.59369 -18.65226,10.74648 -27.58972,15.89551 -8.93778,5.14919 -16.38761,9.33451 -16.55541,9.30098 -0.16779,-0.0345 -12.600328,-7.17323 -27.628168,-15.86549 z m 55.626283,-1.54844 26.39839,-15.17568 0.0164,-31.42565 0.0164,-31.42564 -19.54431,-11.245 c -10.74934,-6.18489 -22.90628,-13.21614 -27.01534,-15.6254 l -7.47119,-4.3804 -27.261029,15.69705 -27.260866,15.69689 0.241748,31.33953 0.241748,31.33969 26.672354,15.42861 c 14.669902,8.48568 27.100965,15.32136 27.624725,15.19021 0.52359,-0.13147 12.83139,-7.06773 27.35059,-15.41421 z m -52.831961,-2.76566 -25.136735,-14.51838 -0.222355,-29.29724 -0.222521,-29.29723 25.350873,-14.57919 25.350879,-14.57887 17.17957,9.92056 c 9.4489,5.45636 20.80663,12.00378 25.23962,14.54961 l 8.06036,4.62905 -0.24257,29.41261 -0.24241,29.41228 -7.35779,4.24448 c -4.04695,2.33416 -15.29211,8.82899 -24.989,14.43236 l -17.63119,10.18827 -25.136731,-14.51831 z m 49.364651,-2.52299 23.43874,-13.56601 0.0164,-27.75291 0.0164,-27.75307 -13.10618,-7.57325 c -7.2084,-4.16544 -17.92027,-10.36461 -23.80375,-13.77589 l -10.69789,-6.20247 -24.022493,13.85133 -24.02249,13.85098 0.01643,27.67764 0.01643,27.67764 23.66718,13.56108 c 13.016941,7.45847 23.981403,13.56348 24.365803,13.56594 0.38423,0.0164 11.24582,-6.09942 24.13704,-13.56101 z m -40.681596,-5.05848 c -8.712637,-6.19687 -15.833285,-11.47376 -15.823424,-11.72685 0.01643,-0.25275 7.251629,-5.57188 16.092618,-11.8197 15.874862,-11.21854 16.103302,-11.34146 18.361042,-9.86221 7.86413,5.1528 29.40669,21.02602 29.40669,21.66778 0,0.83322 -30.36744,23.00761 -31.50847,23.00761 -0.37799,0 -7.815819,-5.06991 -16.528456,-11.26663 z m 0.868717,-48.83415 c -8.59694,-6.14823 -15.599754,-11.59275 -15.561955,-12.09843 0.0756,-1.01021 29.881154,-22.53372 31.204604,-22.53372 0.81152,0 31.98539,21.98087 31.98539,22.55311 0,0.1627 -7.19937,5.46293 -15.99878,11.77714 l -15.99877,11.48067 -15.630489,-11.17877 z"
         style="display:inline;fill:#ffffff" />
    </g>
    <g
       transform="matrix(4.3893223,0,0,4.3893223,35.202948,-3676.9176)"
       id="layer1-8"
       inkscape:label="Layer 1">
      <path
         inkscape:connector-curvature="0"
         id="path4533"
         d="m 125.30739,862.5615 c -0.80315,0.11103 -5.41019,2.71403 -27.092445,15.23307 l -26.769381,15.4554 -0.0531,30.92914 -0.0531,30.93059 26.721601,15.4324 c 14.696975,8.48782 26.871065,15.4081 27.052865,15.37801 0.18244,-0.0306 12.30457,-6.96919 26.93897,-15.4208 l 26.60784,-15.36645 -0.0547,-30.95713 -0.0548,-30.95876 -6.88247,-3.97344 c -23.70276,-13.68837 -45.87427,-26.47561 -46.24915,-26.67383 -0.0241,-0.0161 -0.0579,-0.0161 -0.11262,-0.0161 z m -0.41525,4.76792 c 0.17682,-0.0435 11.3558,6.29347 24.84098,14.08593 l 24.51806,14.16814 0.0548,28.59062 0.0547,28.59209 -23.71235,13.68725 c -13.0421,7.52795 -24.15015,13.93018 -24.68461,14.22734 l -0.97225,0.54091 -24.67478,-14.23941 -24.674778,-14.23909 0.0531,-28.56248 0.05309,-28.56249 24.410928,-14.10409 c 13.42612,-7.7569 24.55636,-14.13982 24.73383,-14.18472 z m 0.10783,23.08906 c -0.11905,0.0161 -9.60277,5.43401 -21.07699,12.06227 l -20.862858,12.05069 -0.05631,10.52273 -0.05631,10.52274 -1.503016,1.03661 c -0.826966,0.57018 -1.503018,1.10192 -1.503018,1.18027 0,0.0772 0.96549,0.80299 2.145766,1.61162 l 2.145605,1.47003 1.349851,-0.94103 c 0.742017,-0.51742 1.706703,-1.18479 2.145927,-1.48485 0.439065,-0.29989 0.803155,-0.6014 0.807497,-0.66913 0,-0.0676 -0.670098,-0.58627 -1.49835,-1.15196 l -1.504627,-1.02839 0,-9.78136 c 0,-5.37946 0.07722,-9.74967 0.173116,-9.71025 0.09332,0.0402 2.659643,1.50736 5.697373,3.26153 l 5.52426,3.18896 0.0563,8.70679 0.0563,8.70663 13.871624,8.03427 c 7.62995,4.41928 13.96943,8.03974 14.08768,8.04569 0.11905,0.0161 6.45773,-3.59552 14.0877,-8.00451 l 13.87161,-8.01624 0.0563,-8.70663 0.0563,-8.70519 6.88054,-3.96668 c 3.78409,-2.18198 6.88054,-4.02864 6.88054,-4.10202 0,-0.1752 -41.55211,-24.14625 -41.83237,-24.13259 z m -25.487424,33.60247 0.484759,0.30473 c 1.521205,0.96018 24.613485,14.19484 24.897125,14.26901 0.18791,0.0483 5.90234,-3.1214 12.69842,-7.04561 6.79592,-3.92423 12.47625,-7.18447 12.62409,-7.24304 0.21174,-0.0836 0.27013,1.4213 0.27013,7.09469 l 0,7.19879 -12.61251,7.28775 c -6.937,4.00788 -12.67251,7.30738 -12.74427,7.33377 -0.0725,0.0273 -5.86485,-3.26411 -12.87314,-7.31237 l -12.742675,-7.36031 0,-7.26282 0,-7.26459 z"
         style="display:inline;fill:#ffffff;fill-opacity:1" />
      <path
         inkscape:connector-curvature="0"
         id="path4535"
         d="m 241.03449,1002.637 c -2.1978,0.039 -4.44011,0.2818 -5.88566,0.7111 -3.49811,1.0387 -6.16117,3.7555 -6.609,6.7413 -0.73119,4.8751 1.70784,8.1956 8.55202,11.6398 2.17583,1.0949 4.3971,2.46 4.93541,3.0332 1.3285,1.414 1.09533,3.716 -0.49601,4.8983 -2.4579,1.8265 -9.52006,0.8064 -12.38861,-1.7893 -0.77646,-0.7029 -0.81655,-0.571 -0.81655,2.7309 0,3.8692 0,3.8714 3.40962,4.741 3.24368,0.8283 10.51812,0.5315 12.57581,-0.5133 5.03669,-2.5574 6.6819,-7.6149 3.97781,-12.2283 -1.42373,-2.4299 -2.6951,-3.4221 -8.05271,-6.2868 -4.52712,-2.4206 -5.93658,-3.9688 -5.16033,-5.6728 0.90137,-1.9785 2.62001,-2.7353 6.08972,-2.6822 2.43959,0.039 3.58988,0.3032 5.19477,1.2002 l 2.06026,1.1523 0,-3.3216 0,-3.3208 -1.76517,-0.5291 c -1.27007,-0.3806 -3.42376,-0.5432 -5.62138,-0.5039 z m -31.02502,0.024 c -2.69913,-0.027 -5.48856,0.3825 -7.31417,1.2021 -4.76598,2.1405 -7.6633,6.285 -8.67495,12.411 -1.48456,8.9899 2.75409,16.7372 10.55679,19.2939 0.62826,0.2049 3.00355,0.322 5.27848,0.2575 3.44297,-0.098 4.56889,-0.3303 6.72035,-1.383 4.85245,-2.3742 7.79391,-7.0968 8.37253,-13.4418 0.74218,-8.1357 -2.95356,-15.0778 -9.30081,-17.4696 -1.49464,-0.5629 -3.53913,-0.8489 -5.63822,-0.8701 z m -197.476754,0.409 -5.2303058,14.0519 c -2.876806,7.7291 -5.6014,15.0371 -6.056384,16.241 l -0.826628,2.1893 3.507628,-0.1336 3.507996,-0.1319 1.216588,-3.6536 1.216956,-3.6537 5.9803698,-0.1262 5.981286,-0.1262 1.268242,3.8946 1.267875,3.8955 3.331606,0 c 2.37383,0 3.32373,-0.163 3.306329,-0.5703 -0.02381,-0.3143 -2.636123,-7.559 -5.828892,-16.0994 l -5.805261,-15.5286 -3.418611,-0.1227 -3.418794,-0.1227 z m 22.149716,0.024 0,16.2141 0,16.2127 2.741261,0 2.739981,0 0,-11.2651 c 0,-6.1964 0.139207,-11.1253 0.311932,-10.9535 0.170344,0.1704 2.279317,5.1902 4.68337,11.1513 l 4.370159,10.8389 2.282247,0.1338 2.282067,0.1318 4.337554,-11.0592 4.339202,-11.0605 0.122716,11.0415 0.122714,11.0417 3.187822,0 3.189288,0 0,-16.2133 0,-16.2139 -4.019212,0 -4.018114,0 -4.544164,11.4061 c -2.499118,6.2728 -4.661027,11.4097 -4.802431,11.4169 -0.139207,0.024 -2.277853,-5.1249 -4.748029,-11.4049 l -4.490498,-11.4181 -4.043572,0 -4.043756,0 z m 53.215952,0 c -2.752985,0 -3.391501,0.141 -3.651597,0.8 -1.185818,3.0096 -11.357941,30.1871 -11.53836,30.8279 -0.200017,0.7098 0.15386,0.7989 3.159247,0.7989 l 3.383808,0 1.269157,-3.8954 1.268242,-3.8944 5.990262,0.1261 5.991367,0.126 1.34608,3.7686 1.34627,3.7675 3.36293,0 c 1.84943,0 3.36293,-0.073 3.36293,-0.1593 0,-0.1466 -8.15858,-22.212 -10.79104,-29.1852 l -1.16311,-3.0833 -3.336186,0 z m 36.755916,0 0,16.2141 0,16.2127 9.36216,0 9.36216,0 0,-2.7398 0,-2.7399 -6.16518,0 -6.16517,0 0,-4.1107 0,-4.1105 5.25136,0 5.25283,0 0,-2.7403 0,-2.74 -5.25283,0 -5.25136,0 0,-3.8821 0,-3.8823 5.70799,0 5.70965,0 0,-2.74 0,-2.7412 -8.90626,0 -8.90535,0 z m 20.55177,0 0,2.7412 0,2.74 4.56635,0 4.56705,0 0,13.4731 0,13.4725 2.96857,0 2.96875,0 0,-13.4725 0,-13.4731 4.56725,0 4.56761,0 0,-2.74 0,-2.7412 -12.10361,0 -12.10197,0 z m 27.85937,0 0,16.2141 0,16.2127 3.19681,0 3.1966,0 0,-6.6219 0,-6.6222 5.48032,0 5.48017,0 0,-2.7402 0,-2.7413 -5.48017,0 -5.48032,0 0,-4.1093 0,-4.1107 5.93716,0 5.93676,0 0,-2.74 0,-2.7412 -9.13375,0 -9.13358,0 z m 36.69988,5.1002 c 3.3926,-0.043 5.67228,1.407 7.32535,4.6309 1.14279,2.229 1.32375,3.0979 1.32923,6.3594 0.0238,4.3227 -0.75976,6.607 -2.99843,8.9199 -0.79237,0.8188 -2.16958,1.6904 -3.05977,1.9376 -3.22777,0.8967 -6.65443,0.2269 -8.86303,-1.735 -3.14094,-2.788 -4.08644,-10.5841 -1.83295,-15.1064 1.57852,-3.168 3.91847,-4.7397 7.4065,-4.9774 0.23683,-0.024 0.46689,-0.027 0.6931,-0.03 z m -122.087469,3.0029 c 0.236651,0.096 1.107239,2.1552 2.020139,4.8027 0.97371,2.8238 1.85987,5.3909 1.97032,5.705 0.14836,0.4281 -0.78248,0.5719 -3.729812,0.5719 -2.730823,0 -3.93111,-0.1667 -3.93111,-0.543 0,-0.6764 3.239475,-10.0661 3.632549,-10.5287 0.0238,-0.024 0.0238,-0.024 0.03847,-0.024 z m -71.830014,0.1466 c 0.08059,-0.024 0.148365,0.057 0.21229,0.1703 0.496014,0.8863 3.55232,9.8315 3.55232,10.3965 0,0.2025 -1.769199,0.3679 -3.931107,0.3679 -2.952453,0 -3.878358,-0.141 -3.720652,-0.5719 0.115393,-0.3139 0.986715,-2.9114 1.935515,-5.7733 1.09625,-3.3061 1.612594,-4.5626 1.952366,-4.5884 z m 89.624953,9.1058 0,2.2845 0,2.2832 6.62219,0 6.62219,0 0,-2.2832 0,-2.2845 -6.62219,0 -6.62219,0 z"
         style="display:inline;fill:#ffffff;fill-opacity:1" />
    </g>
  </g>
</svg>
