<?xml version="1.0" encoding="UTF-8" standalone="no"?>
<!-- Created with Inkscape (http://www.inkscape.org/) -->

<svg
   xmlns:dc="http://purl.org/dc/elements/1.1/"
   xmlns:cc="http://creativecommons.org/ns#"
   xmlns:rdf="http://www.w3.org/1999/02/22-rdf-syntax-ns#"
   xmlns:svg="http://www.w3.org/2000/svg"
   xmlns="http://www.w3.org/2000/svg"
   xmlns:sodipodi="http://sodipodi.sourceforge.net/DTD/sodipodi-0.dtd"
   xmlns:inkscape="http://www.inkscape.org/namespaces/inkscape"
   width="400"
   height="100"
   viewBox="0 0 400 100"
   id="svg4509"
   version="1.1"
   inkscape:version="0.91 r13725"
   sodipodi:docname="logo_2.svg">
  <defs
     id="defs4511" />
  <sodipodi:namedview
     id="base"
     pagecolor="#ffffff"
     bordercolor="#666666"
     borderopacity="1.0"
     inkscape:pageopacity="0.0"
     inkscape:pageshadow="2"
     inkscape:zoom="0.70000001"
     inkscape:cx="85.714296"
     inkscape:cy="122.30957"
     inkscape:document-units="px"
     inkscape:current-layer="layer1"
     showgrid="false"
     units="px"
     inkscape:window-width="1366"
     inkscape:window-height="704"
     inkscape:window-x="0"
     inkscape:window-y="27"
     inkscape:window-maximized="1" />
  <metadata
     id="metadata4514">
    <rdf:RDF>
      <cc:Work
         rdf:about="">
        <dc:format>image/svg+xml</dc:format>
        <dc:type
           rdf:resource="http://purl.org/dc/dcmitype/StillImage" />
        <dc:title></dc:title>
      </cc:Work>
    </rdf:RDF>
  </metadata>
  <g
     inkscape:label="Layer 1"
     inkscape:groupmode="layer"
     id="layer1"
     transform="translate(0,-952.36216)">
    <path
       style="display:inline;fill:#ffffff;fill-opacity:1"
       d="m 355.21773,980.16666 c -2.9398,0.0535 -5.93931,0.37687 -7.87301,0.95114 -4.67949,1.38954 -8.24168,5.02334 -8.84064,9.01773 -0.97796,6.5213 2.2842,10.96297 11.43999,15.57037 2.91006,1.4644 5.88143,3.2903 6.60191,4.0573 1.77684,1.8915 1.46513,4.9708 -0.66351,6.5526 -3.28786,2.4432 -12.73495,1.0785 -16.57211,-2.3939 -1.03878,-0.9401 -1.0924,-0.7637 -1.0924,3.6533 0,5.1756 0,5.1789 4.5611,6.3425 4.33882,1.1077 14.06981,0.7103 16.82237,-0.6872 6.73766,-3.421 8.9381,-10.186 5.32137,-16.3575 -1.90488,-3.2505 -3.60555,-4.5778 -10.7723,-8.40967 -6.05586,-3.23794 -7.94123,-5.30952 -6.90275,-7.58844 1.20581,-2.64666 3.50453,-3.65933 8.14592,-3.58777 3.2635,0.0513 4.80254,0.40574 6.94906,1.60534 l 2.75602,1.54124 0,-4.44349 0,-4.4417 -2.36104,-0.70804 c -1.69907,-0.50895 -4.58008,-0.72654 -7.51998,-0.67381 z m -41.50171,0.0111 c -3.61044,-0.0379 -7.34159,0.51163 -9.78399,1.60846 -6.37559,2.86312 -10.25081,8.40712 -11.60415,16.60177 -1.98599,12.02601 3.68404,22.38921 14.12159,25.80921 0.84008,0.2751 4.01786,0.4308 7.06083,0.3442 4.60567,-0.1311 6.1118,-0.4417 8.98957,-1.8496 6.49124,-3.176 10.42596,-9.4935 11.20006,-17.9808 0.9928,-10.88321 -3.95126,-20.16978 -12.44161,-23.36897 -1.9992,-0.75329 -4.7341,-1.1354 -7.5423,-1.16427 z m -264.161863,0.54719 -6.996681,18.79744 c -3.848049,10.33881 -7.492996,20.11461 -8.101301,21.72501 l -1.106024,2.9289 4.692328,-0.1788 4.69234,-0.179 1.627675,-4.8875 1.627686,-4.8876 7.999844,-0.1698 8.001271,-0.1698 1.69626,5.2095 1.696271,5.211 4.456755,0 c 3.175228,0 4.445999,-0.219 4.422658,-0.7632 -0.0204,-0.42 -3.526447,-10.1112 -7.797131,-21.5357 l -7.765899,-20.7724 -4.573004,-0.16386 -4.573048,-0.16408 z m 29.629292,0.0223 0,21.68905 0,21.6877 3.66685,0 3.665233,0 0,-15.0696 c 0,-8.2882 0.186662,-14.88196 0.417363,-14.65223 0.229899,0.22974 3.049239,6.94303 6.264829,14.91763 l 5.846048,14.4987 3.052698,0.1774 3.0526,0.1772 5.80283,-14.7938 5.80427,-14.79532 0.16439,14.76982 0.16428,14.7702 4.26439,0 4.26604,0 0,-21.6878 0,-21.68907 -5.3765,0 -5.37488,0 -6.07861,15.25737 c -3.3434,8.3911 -6.23497,15.2631 -6.42423,15.2723 -0.18875,0.011 -3.047217,-6.8556 -6.351289,-15.25602 l -6.00695,-15.27365 -5.409381,0 -5.409167,0 z m 71.186391,0 c -3.68291,0 -4.53692,0.18815 -4.88466,1.07029 -1.58637,4.02561 -15.19338,40.38046 -15.43481,41.23786 -0.26704,0.9491 0.20671,1.0686 4.22582,1.0686 l 4.52676,0 1.69785,-5.2111 1.69631,-5.2093 8.01323,0.1698 8.01464,0.1698 1.8006,5.0411 1.8008,5.0396 4.49834,0 c 2.47417,0 4.49854,-0.095 4.49854,-0.2116 0,-0.1957 -10.91353,-29.71311 -14.4345,-39.04091 l -1.55631,-4.12437 -4.46261,0 z m 49.1676,0 0,21.68905 0,21.6877 12.52375,0 12.52376,0 0,-3.6652 0,-3.6654 -8.24738,0 -8.24716,0 0,-5.4986 0,-5.4986 7.02491,0 7.02652,0 0,-3.6654 0,-3.66521 -7.02652,0 -7.02491,0 0,-5.19324 0,-5.19308 7.63603,0 7.63766,0 0,-3.66534 0,-3.66668 -11.91404,0 -11.91262,0 z m 27.49192,0 0,3.66668 0,3.66534 6.10836,0 6.10978,0 0,18.02243 0,18.0223 3.97077,0 3.97106,0 0,-18.0223 0,-18.02243 6.10979,0 6.10978,0 0,-3.66534 0,-3.66668 -16.19063,0 -16.18891,0 z m 37.26706,0 0,21.68905 0,21.6877 4.27638,0 4.27639,0 0,-8.8583 0,-8.8585 7.33072,0 7.33061,0 0,-3.6652 0,-3.66681 -7.33061,0 -7.33072,0 0,-5.49731 0,-5.49861 7.94185,0 7.94164,0 0,-3.66534 0,-3.66668 -12.21804,0 -12.21822,0 z m 49.09317,6.82229 c 4.53814,-0.0591 7.5879,1.88199 9.79899,6.19471 1.52869,2.98174 1.77074,4.14414 1.77825,8.50665 0.0204,5.7823 -1.01655,8.838 -4.01118,11.932 -1.06001,1.0953 -2.90213,2.2611 -4.09302,2.5922 -4.31751,1.1993 -8.90114,0.3019 -11.85596,-2.321 -4.20155,-3.7295 -5.46646,-14.1582 -2.45194,-20.20758 2.1116,-4.23748 5.24147,-6.33996 9.90775,-6.65819 0.31596,-0.0212 0.62453,-0.0334 0.92711,-0.0379 z m -163.315,4.01713 c 0.31557,0.12551 1.48136,2.88294 2.70251,6.42422 1.30237,3.77751 2.48777,7.21161 2.63532,7.63181 0.20083,0.5725 -1.04662,0.7645 -4.98906,0.7645 -3.65318,0 -5.25863,-0.2215 -5.25863,-0.7259 0,-0.9053 4.33346,-13.46518 4.8594,-14.08426 0.0203,-0.0167 0.0304,-0.0178 0.0508,-0.0112 z m -96.085982,0.19507 c 0.105559,-0.0111 0.196816,0.0736 0.283046,0.22661 0.663492,1.18533 4.751985,13.15085 4.751985,13.90695 0,0.27 -2.366662,0.4918 -5.258632,0.4918 -3.949305,0 -5.188231,-0.1911 -4.977002,-0.7647 0.154214,-0.4199 1.319894,-3.8944 2.589038,-7.72231 1.466383,-4.4228 2.157474,-6.1038 2.611565,-6.13835 z m 119.890302,12.18086 0,3.0557 0,3.0541 8.85839,0 8.85849,0 0,-3.0541 0,-3.0557 -8.85849,0 -8.85839,0 z"
       id="path4828-9"
       inkscape:connector-curvature="0" />
  </g>
</svg>
