<?xml version="1.0" encoding="UTF-8" standalone="no"?>
<!-- Created with Inkscape (http://www.inkscape.org/) -->

<svg
   xmlns:dc="http://purl.org/dc/elements/1.1/"
   xmlns:cc="http://creativecommons.org/ns#"
   xmlns:rdf="http://www.w3.org/1999/02/22-rdf-syntax-ns#"
   xmlns:svg="http://www.w3.org/2000/svg"
   xmlns="http://www.w3.org/2000/svg"
   xmlns:sodipodi="http://sodipodi.sourceforge.net/DTD/sodipodi-0.dtd"
   xmlns:inkscape="http://www.inkscape.org/namespaces/inkscape"
   width="400"
   height="400"
   viewBox="0 0 400 400"
   id="svg4509"
   version="1.1"
   inkscape:version="0.91 r13725"
   sodipodi:docname="logo_brand2.svg">
  <defs
     id="defs4511" />
  <sodipodi:namedview
     id="base"
     pagecolor="#ffffff"
     bordercolor="#666666"
     borderopacity="1.0"
     inkscape:pageopacity="0.0"
     inkscape:pageshadow="2"
     inkscape:zoom="0.70000001"
     inkscape:cx="-213.57141"
     inkscape:cy="110.88101"
     inkscape:document-units="px"
     inkscape:current-layer="layer1"
     showgrid="false"
     units="px"
     inkscape:window-width="1366"
     inkscape:window-height="704"
     inkscape:window-x="0"
     inkscape:window-y="27"
     inkscape:window-maximized="1" />
  <metadata
     id="metadata4514">
    <rdf:RDF>
      <cc:Work
         rdf:about="">
        <dc:format>image/svg+xml</dc:format>
        <dc:type
           rdf:resource="http://purl.org/dc/dcmitype/StillImage" />
        <dc:title />
      </cc:Work>
    </rdf:RDF>
  </metadata>
  <g
     inkscape:label="Layer 1"
     inkscape:groupmode="layer"
     id="layer1"
     transform="translate(0,-652.36216)">
    <path
       style="display:inline;fill:#03abf4;fill-opacity:1"
       d="m 200.71386,708.12267 c -1.87809,0.26111 -12.65183,6.34728 -63.3584,35.62397 l -62.603,36.14421 -0.121842,72.33091 -0.121833,72.33464 62.491205,36.09024 c 34.37086,19.84955 62.84055,36.03317 63.26609,35.96313 0.42645,-0.07 28.77555,-16.29846 62.99983,-36.06331 l 62.22531,-35.93603 -0.12616,-72.39648 -0.12624,-72.40021 -16.095,-9.29231 c -55.43158,-32.01181 -107.2821,-61.91621 -108.1589,-62.37942 -0.0564,-0.0308 -0.13927,-0.0348 -0.26542,-0.0175 z m -0.97125,11.15013 c 0.41341,-0.10532 26.55684,14.71799 58.09373,32.94139 l 57.33796,33.13412 0.12616,66.86182 0.12623,66.86565 -55.4534,32.00881 c -30.5004,17.60524 -56.47767,32.57755 -57.72737,33.27282 l -2.27399,1.26417 -57.7043,-33.29991 -57.704307,-33.29984 0.121842,-66.79625 0.121833,-66.79635 57.087722,-32.9838 c 31.39812,-18.14041 57.42759,-33.06739 57.84266,-33.17263 z m 0.2524,53.99662 c -0.27846,0.0133 -22.45706,12.70768 -49.29062,28.20859 l -48.78982,28.18153 -0.13054,24.6087 -0.13054,24.60871 -3.514984,2.42429 c -1.933723,1.33337 -3.514975,2.57668 -3.514975,2.75961 0,0.18276 2.257882,1.87825 5.017915,3.76936 l 5.018364,3.43787 3.15643,-2.2007 c 1.7353,-1.21004 3.99145,-2.77089 5.01835,-3.47256 1.02691,-0.70175 1.87846,-1.40616 1.88846,-1.56476 0,-0.15886 -1.5669,-1.37096 -3.50366,-2.69412 l -3.5189,-2.40496 0,-22.87438 c 0,-12.58061 0.18276,-22.80092 0.40467,-22.70871 0.22192,0.0923 6.21974,3.5251 13.32412,7.62745 l 12.91899,7.45772 0.13056,20.36152 0.13056,20.36145 32.44016,18.78895 c 17.84336,10.33468 32.66874,18.80216 32.94546,18.81601 0.27845,0.0133 15.10201,-8.40887 32.94537,-18.71957 l 32.44024,-18.74662 0.13056,-20.36145 0.13056,-20.35771 16.09111,-9.27695 c 8.84918,-5.10305 16.0911,-9.42112 16.0911,-9.59292 0,-0.40993 -97.17451,-56.46839 -97.82986,-56.43635 z m -59.60455,78.58224 1.13309,0.71305 c 3.55763,2.24559 57.56113,33.19585 58.2247,33.36924 0.43947,0.11487 13.80318,-7.29902 29.69633,-16.47647 15.89315,-9.17743 29.17717,-16.80181 29.5227,-16.939 0.49558,-0.19671 0.6322,3.32407 0.6322,16.59208 l 0,16.83501 -29.49565,17.04301 c -16.22298,9.37257 -29.63631,17.08923 -29.80422,17.15099 -0.16973,0.0622 -13.71527,-7.63343 -30.10492,-17.10086 l -29.80024,-17.21266 0,-16.98524 0,-16.98915 z"
       id="path4828"
       inkscape:connector-curvature="0" />
    <path
       inkscape:connector-curvature="0"
       id="path4134"
       d="m 200.71386,708.12267 c -1.87809,0.26111 -12.65183,6.34728 -63.3584,35.62397 l -62.603,36.14421 -0.121842,72.33091 -0.121833,72.33464 62.491205,36.09024 c 34.37086,19.84955 62.84055,36.03317 63.26609,35.96313 0.42645,-0.07 28.77555,-16.29846 62.99983,-36.06331 l 62.22531,-35.93603 -0.12616,-72.39648 -0.12624,-72.40021 -16.095,-9.29231 c -55.43158,-32.01181 -107.2821,-61.91621 -108.1589,-62.37942 -0.0564,-0.0308 -0.13927,-0.0348 -0.26542,-0.0175 z m -0.97125,11.15013 c 0.41341,-0.10532 26.55684,14.71799 58.09373,32.94139 l 57.33796,33.13412 0.12616,66.86182 0.12623,66.86565 -55.4534,32.00881 c -30.5004,17.60524 -56.47767,32.57755 -57.72737,33.27282 l -2.27399,1.26417 -57.7043,-33.29991 -57.704307,-33.29984 0.121842,-66.79625 0.121833,-66.79635 57.087722,-32.9838 c 31.39812,-18.14041 57.42759,-33.06739 57.84266,-33.17263 z m 0.2524,53.99662 c -0.27846,0.0133 -22.45706,12.70768 -49.29062,28.20859 l -48.78982,28.18153 -0.13054,24.6087 -0.13054,24.60871 -3.514984,2.42429 c -1.933723,1.33337 -3.514975,2.57668 -3.514975,2.75961 0,0.18276 2.257882,1.87825 5.017915,3.76936 l 5.018364,3.43787 3.15643,-2.2007 c 1.7353,-1.21004 3.99145,-2.77089 5.01835,-3.47256 1.02691,-0.70175 1.87846,-1.40616 1.88846,-1.56476 0,-0.15886 -1.5669,-1.37096 -3.50366,-2.69412 l -3.5189,-2.40496 0,-22.87438 c 0,-12.58061 0.18276,-22.80092 0.40467,-22.70871 0.22192,0.0923 6.21974,3.5251 13.32412,7.62745 l 12.91899,7.45772 0.13056,20.36152 0.13056,20.36145 32.44016,18.78895 c 17.84336,10.33468 32.66874,18.80216 32.94546,18.81601 0.27845,0.0133 15.10201,-8.40887 32.94537,-18.71957 l 32.44024,-18.74662 0.13056,-20.36145 0.13056,-20.35771 16.09111,-9.27695 c 8.84918,-5.10305 16.0911,-9.42112 16.0911,-9.59292 0,-0.40993 -97.17451,-56.46839 -97.82986,-56.43635 z m -59.60455,78.58224 1.13309,0.71305 c 3.55763,2.24559 57.56113,33.19585 58.2247,33.36924 0.43947,0.11487 13.80318,-7.29902 29.69633,-16.47647 15.89315,-9.17743 29.17717,-16.80181 29.5227,-16.939 0.49558,-0.19671 0.6322,3.32407 0.6322,16.59208 l 0,16.83501 -29.49565,17.04301 c -16.22298,9.37257 -29.63631,17.08923 -29.80422,17.15099 -0.16973,0.0622 -13.71527,-7.63343 -30.10492,-17.10086 l -29.80024,-17.21266 0,-16.98524 0,-16.98915 z"
       style="display:inline;fill:#03abf4;fill-opacity:1" />
  </g>
</svg>
