<?xml version="1.0" encoding="UTF-8" standalone="no"?>
<!-- Created with Inkscape (http://www.inkscape.org/) -->

<svg
   xmlns:dc="http://purl.org/dc/elements/1.1/"
   xmlns:cc="http://creativecommons.org/ns#"
   xmlns:rdf="http://www.w3.org/1999/02/22-rdf-syntax-ns#"
   xmlns:svg="http://www.w3.org/2000/svg"
   xmlns="http://www.w3.org/2000/svg"
   xmlns:sodipodi="http://sodipodi.sourceforge.net/DTD/sodipodi-0.dtd"
   xmlns:inkscape="http://www.inkscape.org/namespaces/inkscape"
   width="100"
   height="100"
   viewBox="0 0 100 100"
   id="svg5269"
   version="1.1"
   inkscape:version="0.91 r13725"
   sodipodi:docname="social.svg">
  <defs
     id="defs5271" />
  <sodipodi:namedview
     id="base"
     pagecolor="#ffffff"
     bordercolor="#666666"
     borderopacity="1.0"
     inkscape:pageopacity="0.0"
     inkscape:pageshadow="2"
     inkscape:zoom="3.959798"
     inkscape:cx="59.758106"
     inkscape:cy="53.547243"
     inkscape:document-units="px"
     inkscape:current-layer="layer1"
     showgrid="false"
     units="px"
     inkscape:window-width="1366"
     inkscape:window-height="704"
     inkscape:window-x="0"
     inkscape:window-y="27"
     inkscape:window-maximized="1" />
  <metadata
     id="metadata5274">
    <rdf:RDF>
      <cc:Work
         rdf:about="">
        <dc:format>image/svg+xml</dc:format>
        <dc:type
           rdf:resource="http://purl.org/dc/dcmitype/StillImage" />
        <dc:title></dc:title>
      </cc:Work>
    </rdf:RDF>
  </metadata>
  <g
     inkscape:label="Layer 1"
     inkscape:groupmode="layer"
     id="layer1"
     transform="translate(0,-952.36216)">
    <g
       style="display:inline"
       transform="matrix(2.4226373,0,0,2.4226373,-3488.1963,-6965.5721)"
       id="g4931">
      <path
         style="fill:#03abf4;fill-opacity:1;stroke:#02a8f3;stroke-width:1;stroke-miterlimit:4;stroke-dasharray:none;stroke-opacity:1"
         inkscape:connector-curvature="0"
         d="m 1448.5948,3295.3494 c -3.5985,0 -6.5301,-2.9315 -6.5301,-6.53 0,-3.5985 2.9316,-6.53 6.5301,-6.53 3.5984,0 6.53,2.9315 6.53,6.53 0,3.5985 -2.9316,6.53 -6.53,6.53 z m 0,-11.5942 c -2.7927,0 -5.0643,2.2716 -5.0643,5.0642 0,2.7926 2.2716,5.0643 5.0643,5.0643 2.7926,0 5.0642,-2.2717 5.0642,-5.0643 0,-2.7926 -2.2716,-5.0642 -5.0642,-5.0642 z"
         id="path4558" />
      <path
         style="opacity:0.97000002;fill:#03abf4;fill-opacity:1;stroke:#03aaf4;stroke-width:1;stroke-miterlimit:4;stroke-dasharray:none;stroke-opacity:1"
         inkscape:connector-curvature="0"
         d="m 1471.1026,3284.6721 c -3.5985,0 -6.5301,-2.9316 -6.5301,-6.53 0,-3.5985 2.9316,-6.53 6.5301,-6.53 3.5984,0 6.53,2.9315 6.53,6.53 0,3.5984 -2.9316,6.53 -6.53,6.53 z m 0,-11.5943 c -2.7927,0 -5.0643,2.2717 -5.0643,5.0643 0,2.7926 2.2716,5.0642 5.0643,5.0642 2.7926,0 5.0642,-2.2716 5.0642,-5.0642 0,-2.7926 -2.2716,-5.0643 -5.0642,-5.0643 z"
         id="path4560" />
      <path
         style="fill:#03abf4;fill-opacity:1;stroke:#02a8f3;stroke-width:1;stroke-miterlimit:4;stroke-dasharray:none;stroke-opacity:1"
         inkscape:connector-curvature="0"
         d="m 1471.1026,3306.0268 c -3.5985,0 -6.5301,-2.9316 -6.5301,-6.53 0,-3.5985 2.9316,-6.5301 6.5301,-6.5301 3.5984,0 6.53,2.9316 6.53,6.5301 0,3.5984 -2.9316,6.53 -6.53,6.53 z m 0,-11.5943 c -2.7927,0 -5.0643,2.2716 -5.0643,5.0643 0,2.7926 2.2716,5.0642 5.0643,5.0642 2.7926,0 5.0642,-2.2716 5.0642,-5.0642 0,-2.7927 -2.2716,-5.0643 -5.0642,-5.0643 z"
         id="path4562" />
      <path
         style="fill:#03abf4;fill-opacity:1;stroke:#02a8f3;stroke-width:1;stroke-miterlimit:4;stroke-dasharray:none;stroke-opacity:1"
         inkscape:connector-curvature="0"
         d="m 1453.2978,3286.1657 c -0.2779,0 -0.5488,-0.1598 -0.6669,-0.4376 -0.1668,-0.3683 0,-0.8059 0.3681,-0.9657 l 12.0042,-5.3421 c 0.3682,-0.1667 0.8058,0 0.9656,0.3682 0.1668,0.3681 0,0.8058 -0.3681,0.9656 l -12.0042,5.3491 c -0.097,0.042 -0.1945,0.062 -0.2987,0.062 z"
         id="path4564" />
      <path
         style="fill:#03abf4;fill-opacity:1;stroke:#02a8f3;stroke-width:1;stroke-miterlimit:4;stroke-dasharray:none;stroke-opacity:1"
         inkscape:connector-curvature="0"
         d="m 1465.3089,3298.281 c -0.1042,0 -0.2084,-0.021 -0.3057,-0.07 l -11.893,-5.5088 c -0.3682,-0.1667 -0.528,-0.6044 -0.3543,-0.9725 0.1737,-0.3683 0.6044,-0.5281 0.9726,-0.3544 l 11.8861,5.5089 c 0.3681,0.1667 0.5279,0.6043 0.3542,0.9726 -0.125,0.2639 -0.389,0.4237 -0.6599,0.4237 z"
         id="path4566" />
      <ellipse
         style="opacity:1;fill:#ffffff;fill-opacity:1;stroke:none;stroke-width:1.24655962;stroke-linecap:round;stroke-miterlimit:4;stroke-dasharray:none;stroke-dashoffset:0;stroke-opacity:1"
         id="path4673"
         cx="1471.0341"
         cy="3299.3574"
         rx="2.7730103"
         ry="2.727551" />
      <ellipse
         ry="2.727551"
         rx="2.7730103"
         cy="3278.219"
         cx="1471.2458"
         id="ellipse4679"
         style="opacity:0.97000002;fill:#ffffff;fill-opacity:1;stroke:none;stroke-width:1.24655962;stroke-linecap:round;stroke-miterlimit:4;stroke-dasharray:none;stroke-dashoffset:0;stroke-opacity:1" />
      <ellipse
         ry="2.727551"
         rx="2.7730103"
         cy="3288.7209"
         cx="1448.6072"
         id="ellipse4681"
         style="opacity:1;fill:#ffffff;fill-opacity:1;stroke:none;stroke-width:1.24655962;stroke-linecap:round;stroke-miterlimit:4;stroke-dasharray:none;stroke-dashoffset:0;stroke-opacity:1" />
    </g>
  </g>
</svg>
