<?xml version="1.0" encoding="UTF-8" standalone="no"?>
<!-- Created with Inkscape (http://www.inkscape.org/) -->

<svg
   xmlns:dc="http://purl.org/dc/elements/1.1/"
   xmlns:cc="http://creativecommons.org/ns#"
   xmlns:rdf="http://www.w3.org/1999/02/22-rdf-syntax-ns#"
   xmlns:svg="http://www.w3.org/2000/svg"
   xmlns="http://www.w3.org/2000/svg"
   xmlns:sodipodi="http://sodipodi.sourceforge.net/DTD/sodipodi-0.dtd"
   xmlns:inkscape="http://www.inkscape.org/namespaces/inkscape"
   width="100"
   height="100"
   viewBox="0 0 100 100"
   id="svg5269"
   version="1.1"
   inkscape:version="0.91 r13725"
   sodipodi:docname="twitter1.svg">
  <defs
     id="defs5271" />
  <sodipodi:namedview
     id="base"
     pagecolor="#ffffff"
     bordercolor="#666666"
     borderopacity="1.0"
     inkscape:pageopacity="0.0"
     inkscape:pageshadow="2"
     inkscape:zoom="3.959798"
     inkscape:cx="15.311394"
     inkscape:cy="53.042167"
     inkscape:document-units="px"
     inkscape:current-layer="layer1"
     showgrid="false"
     units="px"
     inkscape:window-width="1366"
     inkscape:window-height="704"
     inkscape:window-x="0"
     inkscape:window-y="27"
     inkscape:window-maximized="1" />
  <metadata
     id="metadata5274">
    <rdf:RDF>
      <cc:Work
         rdf:about="">
        <dc:format>image/svg+xml</dc:format>
        <dc:type
           rdf:resource="http://purl.org/dc/dcmitype/StillImage" />
        <dc:title></dc:title>
      </cc:Work>
    </rdf:RDF>
  </metadata>
  <g
     inkscape:label="Layer 1"
     inkscape:groupmode="layer"
     id="layer1"
     transform="translate(0,-952.36216)">
    <g
       style="display:inline;fill:#03abf4;fill-opacity:1"
       transform="matrix(0.19006204,0,0,0.19006204,1.4444288,948.08992)"
       id="g6111">
      <path
         style="fill:#03abf4;fill-opacity:1"
         inkscape:connector-curvature="0"
         d="m 2.6,446.3 c 56.8,5.4 107.1,-8.8 153,-43.2 -11.9,-0.9 -22.3,-2.5 -32.3,-6.1 -26.2,-9.5 -45.8,-26.4 -58.5,-51.2 -1.8,-3.5 -3.3,-7.3 -5,-10.9 -1.8,-3.8 0,-4.3 3.3,-3.8 13,2.1 25.9,1.2 38.7,-1.4 0.3,-0.1 0.5,-0.4 0.8,-0.6 0.2,-1.4 -0.9,-1.6 -1.8,-1.8 -29,-7.2 -50.7,-24.2 -65.6,-49.8 -8.4,-14.5 -12.8,-30.2 -13.3,-47 -0.1,-4.3 1.1,-4.8 4.7,-3.1 12.8,6.2 26.3,10 41.7,10.5 C 60.8,232 54.1,226.6 48.5,220 28,195.9 19.5,168.2 23.6,136.7 c 1.5,-11.7 5.2,-22.6 10.3,-33.2 1.9,-3.9 3.3,-4.4 6.2,-0.9 16.7,20.3 36.2,37.6 57.7,52.6 16.1,11.3 33.3,20.7 51.3,28.6 23.3,10.1 47.6,17 72.6,21 8.4,1.3 16.9,1.6 25.3,2.6 3.9,0.4 4.5,-1.1 3.8,-4.6 -4.2,-21.8 -1.4,-42.9 8.1,-62.8 14.9,-31 39.2,-50.8 73.1,-58 33.5,-7.1 63.2,1.3 89.6,22.6 8.5,12.8 19.2,5.3 28.9,2.6 15.4,-4.3 29.9,-11 44.3,-18.5 -7.3,23.3 -21.7,41.2 -41.8,55.1 19.4,-1.3 37.5,-7.3 56.7,-14.9 -5.1,8.1 -10.4,14.4 -15.6,20.7 -9.7,11.6 -20.9,21.4 -32.8,30.5 -2.5,1.9 -3.2,3.8 -3.1,6.7 0.6,21 -1.1,41.9 -4.9,62.6 -4,21.7 -10.4,42.6 -18.9,62.9 -9.5,22.6 -21.5,44 -36.1,63.7 -18.2,24.6 -39.7,46.1 -64.7,63.9 -33.7,24 -71,39.6 -111.6,47.4 -25.4,4.9 -51.1,6.4 -77,5.1 -20.1,-1 -39.7,-4.1 -59,-9.1 C 61.8,477 38.6,467.8 16.9,455.4 12.3,452.7 7.2,450.9 2.6,446.3 Z"
         id="path6113" />
    </g>
  </g>
</svg>
